<?xml version="1.0" encoding="utf-8"?>
<!-- Generator: Adobe Illustrator 16.0.3, SVG Export Plug-In . SVG Version: 6.00 Build 0)  -->
<!DOCTYPE svg PUBLIC "-//W3C//DTD SVG 1.1//EN" "http://www.w3.org/Graphics/SVG/1.1/DTD/svg11.dtd">
<svg version="1.1" id="Layer_1" xmlns="http://www.w3.org/2000/svg" xmlns:xlink="http://www.w3.org/1999/xlink" x="0px" y="0px"
	 width="32px" height="32px" viewBox="0 0 32 32" enable-background="new 0 0 32 32" xml:space="preserve">
<g id="UTXzFP_1_">
	<g>
		<path fill-rule="evenodd" clip-rule="evenodd" d="M2.598,15.951c0-3.866-0.001-7.732,0-11.598C2.599,2.282,3.863,1,5.922,0.999
			c6.719-0.004,13.438-0.003,20.156,0C28.049,1,29.385,2.244,29.391,4.213c0.024,7.892,0.023,15.784,0,23.676
			c-0.005,1.816-1.351,3.104-3.169,3.107c-6.826,0.012-13.651,0.013-20.477,0c-1.882-0.003-3.137-1.328-3.143-3.288
			C2.59,23.789,2.598,19.87,2.598,15.951z M27.397,15.996c0-3.865,0.003-7.729-0.002-11.593c-0.001-1.165-0.242-1.399-1.411-1.399
			c-6.662-0.001-13.325-0.001-19.988,0c-1.173,0-1.393,0.221-1.393,1.41c-0.002,7.729-0.002,15.458,0,23.186
			c0,1.181,0.223,1.398,1.403,1.398c6.663,0.001,13.325,0.002,19.988,0c1.165-0.001,1.4-0.234,1.401-1.408
			C27.399,23.725,27.397,19.86,27.397,15.996z"/>
		<path fill-rule="evenodd" clip-rule="evenodd" d="M6.229,8.964c0-0.532-0.013-1.064,0.003-1.596
			c0.048-1.571,1.244-2.85,2.805-2.933c1.035-0.055,2.077-0.054,3.112-0.002c1.524,0.077,2.73,1.275,2.828,2.839
			c0.068,1.087,0.071,2.185,0.002,3.271c-0.119,1.894-1.404,3.043-3.305,3.047c-0.825,0.002-1.65,0.017-2.475-0.003
			c-1.636-0.042-2.919-1.319-2.968-2.947C6.214,10.083,6.229,9.523,6.229,8.964z M12.989,8.926c0.002,0,0.005,0,0.007,0
			c0-0.453,0.01-0.905-0.002-1.357c-0.023-0.851-0.322-1.161-1.153-1.174c-0.825-0.013-1.65,0.009-2.475-0.006
			C8.615,6.375,8.203,6.729,8.185,7.473C8.161,8.431,8.162,9.39,8.186,10.348C8.203,11,8.538,11.394,9.231,11.396
			c0.932,0.002,1.864,0.014,2.795-0.006c0.596-0.012,0.94-0.337,0.959-0.946C13.002,9.938,12.989,9.432,12.989,8.926z"/>
		<path fill-rule="evenodd" clip-rule="evenodd" d="M16.115,16.809c2.769,0,5.536-0.001,8.305,0.001
			c0.936,0.001,1.354,0.307,1.345,0.97c-0.01,0.629-0.485,0.998-1.369,0.999c-5.59,0.007-11.179,0.002-16.769,0.006
			c-0.672,0.001-1.163-0.212-1.207-0.961c-0.038-0.654,0.401-1.011,1.23-1.013C10.473,16.806,13.294,16.809,16.115,16.809z"/>
		<path fill-rule="evenodd" clip-rule="evenodd" d="M16.17,22.018c2.688,0,5.376-0.001,8.064,0.001
			c0.266,0.001,0.581-0.064,0.784,0.054c0.289,0.168,0.646,0.452,0.694,0.735c0.049,0.286-0.165,0.719-0.404,0.924
			c-0.229,0.196-0.637,0.249-0.967,0.25c-5.563,0.014-11.126,0.01-16.689,0.01c-0.053,0-0.106,0-0.16-0.001
			c-0.669-0.006-1.075-0.331-1.068-1.012c0.007-0.645,0.414-0.952,1.041-0.956c1.198-0.009,2.396-0.005,3.593-0.005
			C12.763,22.017,14.466,22.018,16.17,22.018z"/>
		<path fill-rule="evenodd" clip-rule="evenodd" d="M20.824,8.009c1.013,0,2.025,0,3.037,0c0.609,0,1.053,0.229,1.096,0.894
			c0.044,0.665-0.389,1.03-0.968,1.042c-2.13,0.042-4.262,0.035-6.392,0.008c-0.577-0.007-0.965-0.377-0.946-0.973
			c0.019-0.633,0.449-0.95,1.057-0.963c1.039-0.022,2.078-0.006,3.116-0.006C20.824,8.011,20.824,8.01,20.824,8.009z"/>
	</g>
</g>
</svg>
