<?xml version="1.0" encoding="utf-8"?>
<!-- Generator: Adobe Illustrator 16.0.3, SVG Export Plug-In . SVG Version: 6.00 Build 0)  -->
<!DOCTYPE svg PUBLIC "-//W3C//DTD SVG 1.1//EN" "http://www.w3.org/Graphics/SVG/1.1/DTD/svg11.dtd">
<svg version="1.1" id="Layer_1" xmlns="http://www.w3.org/2000/svg" xmlns:xlink="http://www.w3.org/1999/xlink" x="0px" y="0px"
	 width="32px" height="32px" viewBox="0 0 32 32" enable-background="new 0 0 32 32" xml:space="preserve">
<g id="Sv9PI5_1_">
	<g>
		<path fill-rule="evenodd" clip-rule="evenodd" d="M15.056,31c-0.807-0.162-1.615-0.318-2.421-0.486
			C6.53,29.234,1.848,23.929,1.131,17.72C0.405,11.43,3.835,5.386,9.191,2.704C9.393,2.603,9.613,2.42,9.805,2.443
			c0.312,0.038,0.809,0.157,0.862,0.346c0.078,0.271-0.085,0.726-0.305,0.938c-0.314,0.305-0.776,0.455-1.169,0.683
			c-4.662,2.712-7.229,7.955-6.546,13.254c0.786,6.101,5.312,10.42,10.781,11.524c5.84,1.18,11.808-1.798,14.582-7.226
			c0.246-0.48,0.435-1.027,1.164-0.622c0.448,0.249,0.603,0.533,0.368,1.041c-2.124,4.61-5.737,7.29-10.671,8.26
			c-0.761,0.149-1.532,0.24-2.299,0.357C16.067,31,15.562,31,15.056,31z"/>
		<path fill-rule="evenodd" clip-rule="evenodd" d="M30.966,16.758c-0.318,0.531-0.545,1.153-1.331,1.167
			c-0.664,0.012-1.22-0.366-1.349-0.964c-0.151-0.696,0.14-1.29,0.757-1.546c0.653-0.271,1.263-0.08,1.633,0.516
			c0.104,0.17,0.194,0.349,0.29,0.523C30.966,16.556,30.966,16.656,30.966,16.758z"/>
		<path fill-rule="evenodd" clip-rule="evenodd" d="M15.047,15.242c-0.152-0.359-0.244-0.609-0.362-0.847
			c-0.764-1.533-1.533-3.064-2.3-4.597c-0.09-0.18-0.196-0.355-0.261-0.545c-0.143-0.415-0.163-0.893,0.321-1.005
			c0.256-0.06,0.734,0.19,0.884,0.438c0.491,0.819,0.878,1.701,1.306,2.558c0.402,0.805,0.807,1.609,1.276,2.546
			c0.19-0.305,0.317-0.478,0.412-0.666c0.685-1.348,1.357-2.701,2.044-4.047c0.247-0.483,0.481-1.172,1.189-0.801
			c0.642,0.337,0.282,0.917,0.047,1.392c-0.784,1.58-1.573,3.158-2.356,4.739c-0.116,0.236-0.204,0.486-0.367,0.874
			c1.071,0,1.996,0,2.921,0.001c0.252,0,0.505,0.003,0.758,0.001c0.506-0.005,0.84,0.196,0.829,0.746
			c-0.011,0.516-0.345,0.686-0.811,0.686c-1.061-0.001-2.121,0.02-3.182-0.005c-0.528-0.012-0.745,0.2-0.707,0.716
			c0.017,0.226,0.02,0.455,0,0.681c-0.048,0.531,0.188,0.705,0.708,0.688c0.984-0.031,1.97-0.005,2.954-0.01
			c0.565-0.002,1.044,0.139,1.03,0.812c-0.014,0.639-0.495,0.74-1.019,0.738c-0.959-0.002-1.921,0.037-2.878-0.013
			c-0.654-0.034-0.841,0.225-0.803,0.831c0.038,0.604,0,1.212,0.006,1.817c0.005,0.473-0.193,0.82-0.676,0.833
			c-0.513,0.013-0.76-0.324-0.758-0.836c0.002-0.606-0.035-1.215,0.008-1.817c0.042-0.609-0.142-0.863-0.796-0.828
			c-0.957,0.051-1.918,0.011-2.877,0.013c-0.525,0.001-1.008-0.116-1.021-0.742c-0.014-0.666,0.476-0.809,1.038-0.807
			c1.01,0.002,2.021-0.017,3.03,0.007c0.456,0.011,0.61-0.152,0.626-0.61c0.052-1.466,0.068-1.465-1.386-1.466
			c-0.833,0-1.667,0-2.5-0.002c-0.462-0.002-0.801-0.172-0.816-0.686c-0.016-0.556,0.333-0.743,0.832-0.744
			c0.934,0,1.869,0.001,2.802-0.004C14.438,15.28,14.679,15.26,15.047,15.242z"/>
		<path fill-rule="evenodd" clip-rule="evenodd" d="M23.296,5.829c-0.75,0.009-1.358-0.58-1.36-1.318
			c-0.002-0.676,0.7-1.341,1.397-1.322c0.673,0.017,1.248,0.647,1.246,1.363C24.576,5.309,24.062,5.819,23.296,5.829z"/>
		<path fill-rule="evenodd" clip-rule="evenodd" d="M15.464,3.764c-0.75,0.009-1.358-0.58-1.36-1.318
			c-0.002-0.676,0.7-1.341,1.397-1.322c0.673,0.017,1.248,0.647,1.246,1.363C16.744,3.243,16.23,3.754,15.464,3.764z"/>
		<path fill-rule="evenodd" clip-rule="evenodd" d="M28.082,8.453c0.723,0.037,1.328,0.644,1.304,1.307
			c-0.026,0.699-0.74,1.37-1.401,1.316c-0.793-0.064-1.292-0.63-1.249-1.416C26.776,8.897,27.316,8.414,28.082,8.453z"/>
	</g>
</g>
</svg>
