<?xml version="1.0" encoding="utf-8"?>
<!-- Generator: Adobe Illustrator 16.0.3, SVG Export Plug-In . SVG Version: 6.00 Build 0)  -->
<!DOCTYPE svg PUBLIC "-//W3C//DTD SVG 1.1//EN" "http://www.w3.org/Graphics/SVG/1.1/DTD/svg11.dtd">
<svg version="1.1" id="Layer_1" xmlns="http://www.w3.org/2000/svg" xmlns:xlink="http://www.w3.org/1999/xlink" x="0px" y="0px"
	 width="32px" height="32px" viewBox="0 0 32 32" enable-background="new 0 0 32 32" xml:space="preserve">
<g id="_x37_KQAjP_1_">
	<g>
		<path fill-rule="evenodd" clip-rule="evenodd" d="M2.15,12.592c0-2.144,0.023-4.287-0.015-6.43
			C2.125,5.576,2.333,5.35,2.869,5.176c4.146-1.344,8.276-2.732,12.424-4.07c0.415-0.134,0.947-0.145,1.36-0.011
			c4.169,1.353,8.323,2.759,12.492,4.118c0.547,0.178,0.723,0.423,0.719,0.998c-0.027,3.757-0.109,7.518,0.016,11.271
			c0.104,3.104-1.097,5.54-3.272,7.598c-2.277,2.156-4.958,3.694-7.837,4.871c-3.438,1.406-2.146,1.392-5.613-0.004
			c-2.663-1.072-5.137-2.5-7.301-4.405c-2.388-2.101-3.923-4.602-3.723-7.95C2.232,15.931,2.15,14.259,2.15,12.592z M28.608,13.024
			c0-1.984-0.016-3.969,0.011-5.953c0.007-0.517-0.104-0.783-0.652-0.96c-3.82-1.23-7.623-2.514-11.439-3.754
			c-0.321-0.104-0.734-0.106-1.055-0.002c-3.817,1.24-7.623,2.52-11.44,3.759C3.52,6.28,3.338,6.5,3.342,7.051
			c0.027,3.598,0.062,7.197-0.003,10.793c-0.043,2.386,0.855,4.316,2.49,5.962c2.765,2.784,6.231,4.403,9.805,5.833
			c0.176,0.071,0.427,0.081,0.602,0.013c3.708-1.458,7.3-3.125,10.11-6.068c1.432-1.5,2.337-3.239,2.272-5.401
			C28.567,16.465,28.608,14.744,28.608,13.024z"/>
		<path fill-rule="evenodd" clip-rule="evenodd" d="M24.611,21.887c-1.173,0.94-2.242,1.981-3.482,2.745
			c-1.454,0.895-3.052,1.557-4.599,2.295c-0.217,0.104-0.534,0.158-0.749,0.08c-3.064-1.107-5.907-2.584-8.129-5.051
			c-0.052-0.057-0.083-0.133-0.154-0.251c1.27-1.766,2.987-2.906,5.126-3.248c2.383-0.381,4.8-0.414,7.179,0.096
			C21.661,18.95,23.297,20.103,24.611,21.887z M9.101,21.68c1.364,1.368,2.963,2.213,4.538,3.128
			c1.588,0.922,3.019,1.021,4.623,0.069c1.607-0.955,3.276-1.797,4.625-3.211c-1.272-1.272-2.733-2.07-4.491-2.159
			c-1.527-0.077-3.063-0.06-4.593-0.014C11.977,19.549,10.453,20.32,9.101,21.68z"/>
		<path fill-rule="evenodd" clip-rule="evenodd" d="M15.982,17.285c-2.931-0.007-5.246-2.174-5.259-4.922
			c-0.013-2.666,2.324-4.946,5.071-4.949c3.106-0.003,5.49,2.156,5.479,4.961C21.261,15.08,18.876,17.292,15.982,17.285z
			 M16.083,8.66c-2.316-0.009-4.148,1.618-4.155,3.69c-0.006,2.065,1.898,3.738,4.235,3.719c2.122-0.018,3.868-1.693,3.873-3.717
			C20.042,10.294,18.301,8.669,16.083,8.66z"/>
	</g>
</g>
</svg>
