<?xml version="1.0" encoding="utf-8"?>
<!-- Generator: Adobe Illustrator 16.0.3, SVG Export Plug-In . SVG Version: 6.00 Build 0)  -->
<!DOCTYPE svg PUBLIC "-//W3C//DTD SVG 1.1//EN" "http://www.w3.org/Graphics/SVG/1.1/DTD/svg11.dtd">
<svg version="1.1" id="Layer_1" xmlns="http://www.w3.org/2000/svg" xmlns:xlink="http://www.w3.org/1999/xlink" x="0px" y="0px"
	 width="32px" height="32px" viewBox="0 0 32 32" enable-background="new 0 0 32 32" xml:space="preserve">
<g id="SeN1Kt_1_">
	<g>
		<path fill-rule="evenodd" clip-rule="evenodd" d="M32,27.674c-10.688,0-21.298,0-31.988,0c0-2.703,0-5.379,0-8.133
			c1.284-0.152,2.691-0.229,3.451-1.518c0.346-0.588,0.599-1.327,0.603-2C4.077,14.106,2.929,13.215,0,12.717
			c0-2.766,0-5.542,0-8.392c10.641,0,21.276,0,31.99,0c0,2.799,0,5.597,0,8.387c-3.002,0.558-4.123,1.524-4.089,3.493
			c0.034,1.925,1.32,2.988,4.099,3.337C32,22.213,32,24.893,32,27.674z M1.716,25.875c9.549,0,19.013,0,28.573,0
			c0-0.82,0-1.592,0-2.363c0-0.803,0-1.604,0-2.365c-2.584-0.781-4.021-2.455-4.141-4.713c-0.125-2.397,1.094-4.103,3.635-5.144
			c0.212-0.087,0.475-0.38,0.48-0.583c0.041-1.518,0.022-3.037,0.022-4.609c-9.55,0-19.011,0-28.573,0
			c0,1.076,0.061,2.111-0.016,3.136c-0.089,1.184-0.041,2.197,1.455,2.389c0.148,0.019,0.288,0.144,0.419,0.237
			c1.673,1.193,2.485,2.818,2.247,4.863c-0.235,2.012-1.407,3.354-3.261,4.139c-0.312,0.133-0.793,0.396-0.805,0.619
			C1.68,22.928,1.716,24.381,1.716,25.875z"/>
		<path fill-rule="evenodd" clip-rule="evenodd" d="M8.685,15.164c4.008,0,7.913,0,11.878,0c0,0.558,0,1.059,0,1.63
			c-3.959,0-7.891,0-11.878,0C8.685,16.248,8.685,15.744,8.685,15.164z"/>
		<path fill-rule="evenodd" clip-rule="evenodd" d="M8.672,11.995c0-0.558,0-1.036,0-1.605c3.931,0,7.863,0,11.875,0
			c0,0.496,0,1.021,0,1.605C16.599,11.995,12.693,11.995,8.672,11.995z"/>
		<path fill-rule="evenodd" clip-rule="evenodd" d="M8.666,21.609c0-0.566,0-1.047,0-1.609c2.401,0,4.786,0,7.254,0
			c0,0.492,0,1.018,0,1.609C13.543,21.609,11.156,21.609,8.666,21.609z"/>
	</g>
</g>
</svg>
