<?xml version="1.0" encoding="utf-8"?>
<!-- Generator: Adobe Illustrator 16.0.3, SVG Export Plug-In . SVG Version: 6.00 Build 0)  -->
<!DOCTYPE svg PUBLIC "-//W3C//DTD SVG 1.1//EN" "http://www.w3.org/Graphics/SVG/1.1/DTD/svg11.dtd">
<svg version="1.1" id="Layer_1" xmlns="http://www.w3.org/2000/svg" xmlns:xlink="http://www.w3.org/1999/xlink" x="0px" y="0px"
	 width="400px" height="300px" viewBox="0 0 400 300" enable-background="new 0 0 400 300" xml:space="preserve">
<rect fill="#F0F2F7" width="400" height="300"/>
<circle fill="#C9CDD4" cx="0" cy="0" r="32"/>
<circle fill="#C9CDD4" cx="160.333" cy="61.667" r="15.333"/>
<circle fill="#C9CDD4" cx="378.832" cy="73.333" r="29.333"/>
<circle fill="#C9CDD4" cx="12.333" cy="175" r="24.667"/>
<circle fill="#C9CDD4" cx="97" cy="311" r="24.667"/>
<circle fill="#C9CDD4" cx="308.489" cy="2.015" r="29.166"/>
<circle fill="#C9CDD4" cx="314.667" cy="236" r="42.667"/>
<g opacity="0.5">
	<path fill="#08152B" d="M106.895,171.496c-1.911,0.348-4.517,0.521-6.861,0.521c-2.258,0-4.777-0.174-6.774-0.521v-28.749
		c0-2.866-1.042-5.037-4.082-5.037h-1.303c-0.434-1.477-0.521-2.953-0.521-4.604c0-1.477,0.087-3.3,0.521-4.864
		c2.693-0.26,5.732-0.434,7.643-0.434h1.911c5.732,0,9.467,3.995,9.467,10.335V171.496z M91.695,110.699
		c1.477-0.782,4.082-1.39,6.427-1.39c2.345,0,5.124,0.608,6.427,1.39c0.695,1.563,1.042,3.474,1.042,5.037s-0.348,3.474-1.042,5.038
		c-1.303,0.695-4.082,1.303-6.427,1.303c-2.345,0-5.125-0.521-6.427-1.303c-0.695-1.563-1.042-3.474-1.042-5.038
		C90.653,114.086,91,112.262,91.695,110.699z"/>
	<path fill="#08152B" d="M136.424,139.534c-1.824,0.087-3.909,1.216-5.732,2.953v29.009c-1.911,0.348-4.43,0.521-6.774,0.521
		c-2.258,0-4.864-0.174-6.774-0.521v-43.34l0.608-0.608h5.037c3.735,0,6.167,1.998,7.296,5.472
		c3.387-3.126,7.469-5.645,11.986-5.645c4.777,0,8.251,2.345,10.162,5.993c3.735-3.3,8.599-5.993,13.375-5.993
		c7.643,0,11.551,5.906,11.551,13.81v19.455c0,3.387,0.608,6.427,2.171,8.599c-1.998,1.736-5.038,2.953-8.425,2.953
		c-5.472,0-7.295-2.953-7.295-8.425v-18.5c0-4.604-2.258-5.732-4.083-5.732c-1.65,0-3.734,1.216-5.559,3.04v28.922
		c-1.911,0.348-4.516,0.521-6.861,0.521c-2.258,0-4.777-0.174-6.774-0.521v-26.143C140.332,140.75,138.334,139.534,136.424,139.534z
		"/>
	<path fill="#08152B" d="M219.977,172.191c-4.43-0.087-7.47-2.085-9.381-4.604c-3.039,2.866-7.034,5.211-12.68,5.211
		c-8.946,0-13.202-6.948-13.202-13.201c0-10.423,8.251-15.026,17.197-15.026c1.563,0,3.908,0,6.166,0.173v-1.65
		c0-3.648-1.736-5.472-5.646-5.472c-3.734,0-8.25,1.39-12.767,2.779c-1.911-2.258-2.953-6.08-3.3-9.467
		c5.819-2.345,14.244-3.821,19.89-3.821c7.556,0,15.459,3.821,15.459,14.852v17.632c0,2.519,0.695,4.429,2.433,5.645
		C223.624,167.588,221.713,170.888,219.977,172.191z M208.077,160.292v-6.948c-1.736-0.087-3.474-0.174-4.689-0.174
		c-3.909,0-5.472,2.259-5.472,5.559c0,2.346,1.563,4.082,3.996,4.082C203.908,162.811,206.08,161.942,208.077,160.292z"/>
	<path fill="#08152B" d="M246.119,126.854c5.124,0,8.858,1.824,11.464,4.082c1.911-2.084,4.604-3.387,8.164-3.474
		c1.737,1.303,3.822,4.517,4.169,6.948c-1.477,1.042-2.432,3.474-2.432,6.253v22.93c0,12.159-1.737,17.283-4.43,20.758
		c-3.474,4.343-9.38,6.34-16.328,6.34c-5.472,0-11.812-1.129-16.328-2.866c0-3.213,1.39-7.556,3.3-9.814
		c3.735,1.65,7.904,2.605,11.812,2.605c6.34,0,8.772-3.474,8.772-8.771v-2.866c-2.866,2.084-6.341,3.387-9.901,3.387
		c-10.597,0-15.634-9.293-15.634-22.494C228.748,135.018,236.651,126.854,246.119,126.854z M254.283,139.882
		c-1.998-1.911-4.082-2.953-5.732-2.953c-4.256,0-5.906,4.951-5.906,13.028c0,8.077,2.171,11.464,5.124,11.464
		c2.259,0,4.517-0.955,6.515-2.953V140.49V139.882z"/>
	<path fill="#08152B" d="M288.85,154.212c0.435,4.69,2.085,8.251,7.817,8.251c3.908,0,7.729-1.216,11.29-2.605
		c1.998,1.998,3.214,5.299,3.562,7.991c-4.343,3.126-10.943,4.95-17.023,4.95c-15.286,0-19.368-11.204-19.368-22.669
		c0-13.114,5.646-23.276,19.455-23.276c11.465,0,18.065,7.904,18.065,18.413c0,3.821-0.261,6.079-1.129,8.945H288.85z
		 M288.763,144.832h11.465v-0.955c0-3.995-1.65-7.383-5.732-7.383C290.674,136.494,289.11,139.187,288.763,144.832z"/>
</g>
</svg>
