<?xml version="1.0" encoding="utf-8"?>
<!-- Generator: Adobe Illustrator 16.0.3, SVG Export Plug-In . SVG Version: 6.00 Build 0)  -->
<!DOCTYPE svg PUBLIC "-//W3C//DTD SVG 1.1//EN" "http://www.w3.org/Graphics/SVG/1.1/DTD/svg11.dtd">
<svg version="1.1" id="Layer_1" xmlns="http://www.w3.org/2000/svg" xmlns:xlink="http://www.w3.org/1999/xlink" x="0px" y="0px"
	 width="32px" height="32px" viewBox="0 0 32 32" enable-background="new 0 0 32 32" xml:space="preserve">
<g>
	<path fill="#296DC0" d="M26,25c0,1.1-0.9,2-2,2H8c-1.101,0-2-0.9-2-2V2c0-1.1,0.899-2,2-2h16c1.1,0,2,0.9,2,2V25z"/>
	<path fill="#296DC0" d="M28,20c0,0,0,1,0,5s-4,4-4,4s-12.001,0-16,0c-4,0-4-4-4-4v-5c0,0-4,2-4,7v5h32v-5C32,22,28,20,28,20z"/>
	<path fill="#FFFFFF" d="M20,16h-3.5v-3H20c0.552,0,1-0.448,1-1s-0.448-1-1-1h-2.669l3.51-5.459
		c0.298-0.464,0.164-1.083-0.301-1.382c-0.464-0.299-1.083-0.164-1.382,0.301L15.5,10.15l-3.659-5.691
		c-0.299-0.464-0.918-0.6-1.382-0.301C9.994,4.458,9.86,5.076,10.158,5.541L13.668,11H11c-0.553,0-1,0.448-1,1s0.447,1,1,1h3.5v3H11
		c-0.553,0-1,0.447-1,1s0.447,1,1,1h3.5v3c0,0.553,0.447,1,1,1c0.552,0,1-0.447,1-1v-3H20c0.552,0,1-0.447,1-1S20.552,16,20,16z"/>
</g>
</svg>
