<?xml version="1.0" encoding="utf-8"?>
<!-- Generator: Adobe Illustrator 16.0.3, SVG Export Plug-In . SVG Version: 6.00 Build 0)  -->
<!DOCTYPE svg PUBLIC "-//W3C//DTD SVG 1.1//EN" "http://www.w3.org/Graphics/SVG/1.1/DTD/svg11.dtd">
<svg version="1.1" id="Layer_1" xmlns="http://www.w3.org/2000/svg" xmlns:xlink="http://www.w3.org/1999/xlink" x="0px" y="0px"
	 width="32px" height="32px" viewBox="0 0 32 32" enable-background="new 0 0 32 32" xml:space="preserve">
<rect fill="#E2E7FF" width="32" height="32"/>
<rect x="12.083" y="19.459" fill="#E5C3BE" width="7.125" height="7.541"/>
<path fill="#0D0D5E" d="M10.625,23.209c0,0-6.542,2.75-6.958,3.458S2.333,32,2.333,32H29.75c0,0-1.125-5.083-1.417-5.458
	s-7.5-3.375-7.5-3.375l-5.208,2.292L10.625,23.209z"/>
<path fill="#EFD2D1" d="M10.5,14.042c0,0-1.083-0.208-1.167,0.583S9.792,16.417,9.875,17s0.875,0.167,0.875,0.167
	s0.083,1.5,1.125,2.25s2.042,1.583,2.5,1.708s2.625,0.251,3.167,0.042s2.417-1.625,3-2.292s0.5-1.375,0.5-1.375
	s0.542,0.251,0.75-0.208s0.208-1.083,0.333-1.417c0.125-0.333,0.209-0.667,0.167-1.042s-0.708-0.792-1-0.75V9.167H10.5V14.042z"/>
<path fill="#FFFFFF" d="M15.625,25.459c0,0-3.583-3.292-3.917-3.542s-0.458-0.291-0.625-0.083S10.375,22.75,10.417,23
	s1.833,3.75,1.958,4s0.375,0.251,0.708,0.084S15.625,25.459,15.625,25.459z"/>
<path fill="#FFFFFF" d="M15.625,25.459c0,0,3.584-3.292,3.917-3.542s0.458-0.291,0.625-0.083S20.875,22.75,20.834,23
	c-0.042,0.25-1.834,3.75-1.959,4s-0.375,0.251-0.708,0.084S15.625,25.459,15.625,25.459z"/>
<path fill="#070707" d="M20.11,6.551c0,0-1.67-3.57-9.596-0.655l0.524,0.458c0,0-2.358,1.441-2.292,5.83
	c0,0,0.917,1.113,0.917,3.079l0.884-0.819c0,0-0.491-3.209,2.063-3.897s3.373,0.589,6.583-0.655c0,0,1.409,0.295,1.671,4.127
	l0.786,1.179c0,0-0.099-1.867,0.917-3.013C22.567,12.185,22.959,7.271,20.11,6.551z"/>
</svg>
