<?xml version="1.0" encoding="utf-8"?>
<!-- Generator: Adobe Illustrator 16.0.3, SVG Export Plug-In . SVG Version: 6.00 Build 0)  -->
<!DOCTYPE svg PUBLIC "-//W3C//DTD SVG 1.1//EN" "http://www.w3.org/Graphics/SVG/1.1/DTD/svg11.dtd">
<svg version="1.1" id="Layer_1" xmlns="http://www.w3.org/2000/svg" xmlns:xlink="http://www.w3.org/1999/xlink" x="0px" y="0px"
	 width="32px" height="32px" viewBox="0 0 32 32" enable-background="new 0 0 32 32" xml:space="preserve">
<path fill="#45A1E6" d="M14,24c0-5.514,4.486-10,10-10c1.045,0,2.053,0.163,3,0.461V2c0-1.1-0.9-2-2-2H2C0.9,0,0,0.9,0,2v25l4,5l3-3
	l3,3l3-3l3,3h1h1.026C15.588,30.175,14,27.272,14,24z"/>
<circle fill="#45A1E6" cx="24" cy="24" r="8"/>
<path fill="#FFFFFF" d="M27,26h-2.5v-2H27c0.276,0,0.5-0.224,0.5-0.5S27.276,23,27,23h-2l2.4-3.2c0.165-0.221,0.12-0.534-0.101-0.7
	c-0.22-0.164-0.533-0.12-0.7,0.101L24,22.666L21.4,19.2c-0.167-0.221-0.48-0.266-0.7-0.101c-0.221,0.166-0.266,0.479-0.101,0.7
	L23,23h-2c-0.276,0-0.5,0.224-0.5,0.5S20.724,24,21,24h2.5v2H21c-0.276,0-0.5,0.224-0.5,0.5S20.724,27,21,27h2.5v1.5
	c0,0.276,0.224,0.5,0.5,0.5s0.5-0.224,0.5-0.5V27H27c0.276,0,0.5-0.224,0.5-0.5S27.276,26,27,26z"/>
<path fill="#FFFFFF" d="M17,7H5C4.448,7,4,6.552,4,6s0.448-1,1-1h12c0.553,0,1,0.448,1,1S17.553,7,17,7z"/>
<path fill="#FFFFFF" d="M13,14H5c-0.552,0-1-0.448-1-1s0.448-1,1-1h8c0.552,0,1,0.448,1,1S13.552,14,13,14z"/>
<path fill="#FFFFFF" d="M11,21H5c-0.552,0-1-0.447-1-1s0.448-1,1-1h6c0.552,0,1,0.447,1,1S11.552,21,11,21z"/>
</svg>
