<?xml version="1.0" encoding="utf-8"?>
<!-- Generator: Adobe Illustrator 16.0.3, SVG Export Plug-In . SVG Version: 6.00 Build 0)  -->
<!DOCTYPE svg PUBLIC "-//W3C//DTD SVG 1.1//EN" "http://www.w3.org/Graphics/SVG/1.1/DTD/svg11.dtd">
<svg version="1.1" id="Layer_1" xmlns="http://www.w3.org/2000/svg" xmlns:xlink="http://www.w3.org/1999/xlink" x="0px" y="0px"
	 width="32px" height="32px" viewBox="0.5 0.5 32 32" enable-background="new 0.5 0.5 32 32" xml:space="preserve">
<g id="V0EfyN_1_">
	<g>
		<path fill-rule="evenodd" clip-rule="evenodd" fill="#06113B" d="M32.5,32.5c-10.829,0-21.374,0-31.901,0
			c-0.724-3.808,2.655-9.627,6.185-10.639c0.419-0.12,1.051,0.158,1.47,0.43c5.603,3.632,10.702,3.616,16.264-0.006
			c0.469-0.306,1.386-0.45,1.821-0.199C30.245,24.339,32.332,27.723,32.5,32.5z"/>
		<path fill-rule="evenodd" clip-rule="evenodd" fill="#06113B" d="M7.337,13.298c0.007-4.863,4.025-8.726,9.057-8.709
			c4.991,0.018,8.955,3.902,8.988,8.808c0.033,4.834-4,8.808-8.976,8.843C11.33,22.276,7.33,18.332,7.337,13.298z"/>
		<path fill-rule="evenodd" clip-rule="evenodd" fill="#06113B" d="M26.881,16.621c0-2.458,0.062-4.846-0.033-7.228
			c-0.035-0.85-0.259-1.817-0.729-2.506c-4.324-6.344-13.733-6.84-18.796-1.051C6.27,7.04,5.609,8.282,5.777,10.025
			c0.208,2.16,0.05,4.355,0.05,6.627c-1.969,0.041-3.138-0.858-3.79-2.393c-0.665-1.568-0.334-3.022,0.785-4.335
			c0.628-0.736,1.214-1.529,1.69-2.37C7.113,2.971,11.081,0.522,16.307,0.5c5.137-0.021,9.086,2.331,11.713,6.81
			c0.562,0.957,1.513,1.734,1.885,2.741c0.483,1.306,0.97,2.837,0.716,4.127C30.313,15.741,28.923,16.675,26.881,16.621z"/>
	</g>
</g>
</svg>
