<?xml version="1.0" encoding="utf-8"?>
<!-- Generator: Adobe Illustrator 16.0.3, SVG Export Plug-In . SVG Version: 6.00 Build 0)  -->
<!DOCTYPE svg PUBLIC "-//W3C//DTD SVG 1.1//EN" "http://www.w3.org/Graphics/SVG/1.1/DTD/svg11.dtd">
<svg version="1.1" id="Layer_1" xmlns="http://www.w3.org/2000/svg" xmlns:xlink="http://www.w3.org/1999/xlink" x="0px" y="0px"
	 width="32px" height="32px" viewBox="0 0 32 32" enable-background="new 0 0 32 32" xml:space="preserve">
<g>
	<g id="Z2FvCA.tif">
		<g>
			<path fill-rule="evenodd" clip-rule="evenodd" fill="#2E68CB" d="M15.928,17.217c-3.384-0.001-6.77-0.042-10.153,0.021
				c-1.309,0.024-3.064-1.05-3.085-2.998C2.65,10.49,2.665,6.741,2.688,2.991c0.008-1.41,1.049-2.616,2.42-2.884
				c0.387-0.074,0.79-0.103,1.185-0.103c6.57-0.006,13.14-0.005,19.71-0.004c2,0,3.32,1.332,3.32,3.344
				c0,3.55-0.027,7.101,0.012,10.65c0.018,1.6-1.188,3.28-3.254,3.24C22.698,17.169,19.313,17.217,15.928,17.217z"/>
			<path fill-rule="evenodd" clip-rule="evenodd" fill="#2E68CB" d="M10.954,18.856c3.218,0,6.436-0.003,9.653,0.003
				c0.764,0.001,1.48,0.184,2.082,0.679c0.538,0.442,0.585,0.775,0.212,1.377c-0.563,0.909-1.478,1.299-2.439,1.585
				c-2.687,0.802-5.442,0.65-8.192,0.571c-0.099-0.003-0.198-0.026-0.297-0.024c-0.511,0.011-1.001,0.439-1.04,0.904
				c-0.032,0.375,0.408,0.91,0.855,0.979c2.044,0.319,4.097,0.276,6.148,0.073c1.471-0.146,2.917-0.432,4.261-1.068
				c1.488-0.705,2.6-1.754,2.888-3.477c0.018-0.106,0.118-0.259,0.208-0.283c1.414-0.385,2.77-0.989,4.293-0.935
				c1.445,0.053,2.234,0.912,2.326,2.411c0.094,1.544-0.6,2.617-1.816,3.462c-3.377,2.341-6.829,4.552-10.559,6.302
				c-1.614,0.758-3.304,0.64-4.978,0.411c-4.128-0.561-7.814-2.274-11.285-4.497c-0.822-0.527-1.604-1.118-2.388-1.701
				c-0.637-0.474-0.739-1.218-0.771-1.916c-0.06-1.341-0.024-2.687-0.017-4.03c0.002-0.533,0.343-0.823,0.953-0.824
				c2.637-0.003,5.274-0.002,7.912-0.002C9.626,18.856,10.29,18.856,10.954,18.856z"/>
		</g>
	</g>
	<path fill-rule="evenodd" clip-rule="evenodd" fill="#FFFFFF" d="M16.696,6.87c-0.042-0.069-0.084-0.139-0.126-0.207
		c0.091-0.036,0.194-0.055,0.27-0.11c0.663-0.496,1.318-1.002,1.981-1.496c0.312-0.232,0.594-0.468,0.308-0.895
		c-0.252-0.376-0.509-0.385-1.009-0.014c-0.758,0.562-1.515,1.126-2.254,1.712c-0.287,0.228-0.502,0.221-0.781-0.013
		c-0.725-0.604-1.474-1.177-2.204-1.775c-0.338-0.278-0.633-0.26-0.895,0.076c-0.253,0.324-0.103,0.594,0.167,0.814
		c0.347,0.281,0.709,0.544,1.06,0.821c0.391,0.309,0.776,0.623,1.165,0.936c-0.018,0.05-0.036,0.101-0.054,0.15
		c-0.554,0-1.108-0.005-1.663,0.002c-0.399,0.005-0.756,0.118-0.761,0.593c-0.005,0.462,0.345,0.614,0.738,0.639
		c0.43,0.027,0.862,0.016,1.293,0.017c1.123,0.001,1.092,0.001,1.133,1.134c0.019,0.522-0.146,0.66-0.642,0.626
		c-0.577-0.04-1.161-0.021-1.74,0.008c-0.396,0.019-0.752,0.202-0.736,0.646c0.016,0.434,0.356,0.601,0.771,0.601
		c0.249,0,0.498,0.002,0.746,0.002c0.522,0,1.044,0,1.599,0c0,0.727-0.015,1.356,0.005,1.983c0.014,0.442,0.311,0.771,0.646,0.739
		c0.454-0.045,0.598-0.354,0.596-0.768c-0.001-0.497,0.014-0.995-0.003-1.491c-0.011-0.341,0.118-0.478,0.464-0.468
		c0.613,0.016,1.227,0.008,1.84,0.001c0.479-0.005,0.825-0.256,0.844-0.593c0.019-0.352-0.339-0.646-0.843-0.665
		c-0.413-0.016-0.828-0.006-1.243-0.006c-1.283-0.001-1.272,0-1.262-1.299c0.002-0.345,0.104-0.474,0.457-0.462
		c0.629,0.022,1.26,0.021,1.89,0.002c0.538-0.017,0.844-0.278,0.81-0.67c-0.045-0.52-0.435-0.564-0.834-0.569
		C17.851,6.864,17.273,6.87,16.696,6.87z"/>
</g>
</svg>
