<?xml version="1.0" encoding="utf-8"?>
<!-- Generator: Adobe Illustrator 16.0.3, SVG Export Plug-In . SVG Version: 6.00 Build 0)  -->
<!DOCTYPE svg PUBLIC "-//W3C//DTD SVG 1.1//EN" "http://www.w3.org/Graphics/SVG/1.1/DTD/svg11.dtd">
<svg version="1.1" id="Layer_1" xmlns="http://www.w3.org/2000/svg" xmlns:xlink="http://www.w3.org/1999/xlink" x="0px" y="0px"
	 width="32px" height="32px" viewBox="0.5 0.5 32 32" enable-background="new 0.5 0.5 32 32" xml:space="preserve">
<path fill="#B2B2B2" d="M29.5,30.5h-26c-1.654,0-3-1.346-3-3v-11c0-0.552,0.448-1,1-1s1,0.448,1,1v11c0,0.552,0.449,1,1,1h26
	c0.552,0,1-0.448,1-1V11.255L16.821,19.36c-0.318,0.188-0.713,0.186-1.029-0.006l-14.812-9C0.682,10.173,0.5,9.849,0.5,9.5V5.539
	c0-1.654,1.346-3,3-3h26c1.654,0,3,1.346,3,3v3.943c0,0.012,0,0.023,0,0.035V27.5C32.5,29.154,31.154,30.5,29.5,30.5z M2.5,8.938
	l13.818,8.396L30.5,8.93V5.539c0-0.551-0.448-1-1-1h-26c-0.551,0-1,0.449-1,1V8.938z"/>
</svg>
