<?xml version="1.0" encoding="utf-8"?>
<!-- Generator: Adobe Illustrator 16.0.3, SVG Export Plug-In . SVG Version: 6.00 Build 0)  -->
<!DOCTYPE svg PUBLIC "-//W3C//DTD SVG 1.1//EN" "http://www.w3.org/Graphics/SVG/1.1/DTD/svg11.dtd">
<svg version="1.1" id="Layer_1" xmlns="http://www.w3.org/2000/svg" xmlns:xlink="http://www.w3.org/1999/xlink" x="0px" y="0px"
	 width="32px" height="32px" viewBox="0 0 32 32" enable-background="new 0 0 32 32" xml:space="preserve">
<g>
	<path fill="#D09F42" d="M9,0C8.125,0,7.312,0,8,2c0.625,1.59,2,5,2,5h11c0,0,1.372-3.554,2-5c0.554-1.277,0.36-1.975-1-2
		C21.867-0.003,10.947,0,9,0z"/>
	<path fill-rule="evenodd" clip-rule="evenodd" fill="#D09F42" d="M9.259,31.984C6.062,31.984,2,30,2,25c0-3,8-16,8-16h11
		c0,0,9,13,9,17s-4,5.985-7.359,5.985C20.526,32.012,11.604,31.984,9.259,31.984z"/>
	<rect x="12" y="20" fill-rule="evenodd" clip-rule="evenodd" fill="#FFFFFF" width="8" height="2"/>
	<rect x="15" y="20" fill-rule="evenodd" clip-rule="evenodd" fill="#FFFFFF" width="2" height="8"/>
	<polygon fill-rule="evenodd" clip-rule="evenodd" fill="#FFFFFF" points="15,22 12,14 14,14 17,22 	"/>
	<polygon fill-rule="evenodd" clip-rule="evenodd" fill="#FFFFFF" points="17,22 20,14 18,14 15,22 	"/>
	<rect x="12" y="24" fill-rule="evenodd" clip-rule="evenodd" fill="#FFFFFF" width="8" height="2"/>
</g>
</svg>
