<?xml version="1.0" encoding="utf-8"?>
<!-- Generator: Adobe Illustrator 16.0.3, SVG Export Plug-In . SVG Version: 6.00 Build 0)  -->
<!DOCTYPE svg PUBLIC "-//W3C//DTD SVG 1.1//EN" "http://www.w3.org/Graphics/SVG/1.1/DTD/svg11.dtd">
<svg version="1.1" id="Layer_1" xmlns="http://www.w3.org/2000/svg" xmlns:xlink="http://www.w3.org/1999/xlink" x="0px" y="0px"
	 width="32px" height="32px" viewBox="0 0 32 32" enable-background="new 0 0 32 32" xml:space="preserve">
<circle fill="#00BD00" cx="16" cy="16" r="16"/>
<path fill="#FFFFFF" d="M24.684,11.451c-0.074-0.195-0.094-0.322-0.162-0.411c-0.475-0.621-0.936-0.402-1.428,0.008
	c-3.072,2.557-6.16,5.094-9.223,7.664c-0.556,0.467-0.988,0.494-1.553,0.034c-0.986-0.804-2.019-1.55-3.028-2.325
	c-0.411-0.315-0.805-0.519-1.227-0.012c-0.4,0.48-0.457,0.932,0.011,1.41c1.471,1.502,2.938,3.008,4.392,4.525
	c0.439,0.459,0.823,0.477,1.28,0.025c3.508-3.441,7.023-6.877,10.529-10.322C24.455,11.875,24.564,11.631,24.684,11.451z"/>
</svg>
