<?xml version="1.0" encoding="utf-8"?>
<!-- Generator: Adobe Illustrator 16.0.3, SVG Export Plug-In . SVG Version: 6.00 Build 0)  -->
<!DOCTYPE svg PUBLIC "-//W3C//DTD SVG 1.1//EN" "http://www.w3.org/Graphics/SVG/1.1/DTD/svg11.dtd">
<svg version="1.1" id="Layer_1" xmlns="http://www.w3.org/2000/svg" xmlns:xlink="http://www.w3.org/1999/xlink" x="0px" y="0px"
	 width="32px" height="32px" viewBox="0 0 32 32" enable-background="new 0 0 32 32" xml:space="preserve">
<path fill="#FFFFFF" d="M16,0C7.164,0,0,7.164,0,16c0,8.836,7.164,16,16,16c8.836,0,16-7.164,16-16C32,7.164,24.836,0,16,0z
	 M24.089,11.021c-3.506,3.445-7.022,6.879-10.53,10.322c-0.457,0.45-0.841,0.433-1.28-0.026c-1.454-1.518-2.921-3.023-4.392-4.525
	c-0.468-0.479-0.411-0.93-0.011-1.41c0.422-0.507,0.816-0.303,1.227,0.012c1.009,0.775,2.042,1.521,3.028,2.325
	c0.565,0.46,0.997,0.433,1.553-0.034c3.062-2.569,6.15-5.106,9.222-7.664c0.492-0.41,0.953-0.629,1.429-0.008
	c0.067,0.089,0.087,0.216,0.162,0.411C24.377,10.603,24.268,10.847,24.089,11.021z"/>
</svg>
