<?xml version="1.0" encoding="utf-8"?>
<!-- Generator: Adobe Illustrator 16.0.3, SVG Export Plug-In . SVG Version: 6.00 Build 0)  -->
<!DOCTYPE svg PUBLIC "-//W3C//DTD SVG 1.1//EN" "http://www.w3.org/Graphics/SVG/1.1/DTD/svg11.dtd">
<svg version="1.1" id="Layer_1" xmlns="http://www.w3.org/2000/svg" xmlns:xlink="http://www.w3.org/1999/xlink" x="0px" y="0px"
	 width="32px" height="32px" viewBox="0 0 32 32" enable-background="new 0 0 32 32" xml:space="preserve">
<path fill="#E0B041" d="M11,6c0,1.1-0.9,2-2,2H8C6.9,8,6,7.1,6,6V2c0-1.1,0.9-2,2-2h1c1.1,0,2,0.9,2,2V6z"/>
<path fill="#E0B041" d="M30,5h-3v1c0,1.654-1.346,3-3,3h-1c-1.654,0-3-1.346-3-3V5h-8v1c0,1.654-1.346,3-3,3H8C6.346,9,5,7.654,5,6
	V5H2C0.9,5,0,5.9,0,7v23c0,1.1,0.9,2,2,2h28c1.1,0,2-0.9,2-2V7C32,5.9,31.1,5,30,5z"/>
<path fill="#E0B041" d="M26,6c0,1.1-0.9,2-2,2h-1c-1.1,0-2-0.9-2-2V2c0-1.1,0.9-2,2-2h1c1.1,0,2,0.9,2,2V6z"/>
<path fill="#FFFFFF" d="M19,17c0,0.55-0.45,1-1,1H6c-0.55,0-1-0.45-1-1v-2c0-0.55,0.45-1,1-1h12c0.55,0,1,0.45,1,1V17z"/>
<path fill="#FFFFFF" d="M27,25c0,0.55-0.45,1-1,1H6c-0.55,0-1-0.45-1-1v-2c0-0.55,0.45-1,1-1h20c0.55,0,1,0.45,1,1V25z"/>
</svg>
