<?xml version="1.0" encoding="utf-8"?>
<!-- Generator: Adobe Illustrator 16.0.3, SVG Export Plug-In . SVG Version: 6.00 Build 0)  -->
<!DOCTYPE svg PUBLIC "-//W3C//DTD SVG 1.1//EN" "http://www.w3.org/Graphics/SVG/1.1/DTD/svg11.dtd">
<svg version="1.1" id="Layer_1" xmlns="http://www.w3.org/2000/svg" xmlns:xlink="http://www.w3.org/1999/xlink" x="0px" y="0px"
	 width="32px" height="32px" viewBox="0 0 32 32" enable-background="new 0 0 32 32" xml:space="preserve">
<path fill="#B1B1B1" d="M25,32H7c-1.654,0-3-1.346-3-3V3c0-1.654,1.346-3,3-3h18c1.654,0,3,1.346,3,3v26C28,30.654,26.654,32,25,32z
	 M7,2C6.449,2,6,2.449,6,3v26c0,0.552,0.449,1,1,1h18c0.552,0,1-0.448,1-1V3c0-0.551-0.448-1-1-1H7z"/>
<circle fill="#B1B1B1" cx="16" cy="26" r="2"/>
<rect x="6" y="20" fill="#B1B1B1" width="17" height="2"/>
</svg>
