<?xml version="1.0" encoding="utf-8"?>
<!-- Generator: Adobe Illustrator 16.0.3, SVG Export Plug-In . SVG Version: 6.00 Build 0)  -->
<!DOCTYPE svg PUBLIC "-//W3C//DTD SVG 1.1//EN" "http://www.w3.org/Graphics/SVG/1.1/DTD/svg11.dtd">
<svg version="1.1" id="Layer_1" xmlns="http://www.w3.org/2000/svg" xmlns:xlink="http://www.w3.org/1999/xlink" x="0px" y="0px"
	 width="32px" height="32px" viewBox="0 0 32 32" enable-background="new 0 0 32 32" xml:space="preserve">
<path fill="#B2B2B2" d="M22.847,16.933H9.311c-0.552,0-1-0.448-1-1s0.448-1,1-1h13.536c0.553,0,1,0.448,1,1
	S23.399,16.933,22.847,16.933z"/>
<path fill="#B2B2B2" d="M16.079,23.701c-0.552,0-1-0.447-1-1V9.165c0-0.552,0.448-1,1-1s1,0.448,1,1v13.536
	C17.078,23.254,16.631,23.701,16.079,23.701z"/>
<path fill="#B2B2B2" d="M16,32C7.178,32,0,24.822,0,16S7.178,0,16,0s16,7.178,16,16S24.822,32,16,32z M16,2C8.28,2,2,8.28,2,16
	s6.28,14,14,14s14-6.28,14-14S23.72,2,16,2z"/>
</svg>
