<?xml version="1.0" encoding="utf-8"?>
<!-- Generator: Adobe Illustrator 16.0.3, SVG Export Plug-In . SVG Version: 6.00 Build 0)  -->
<!DOCTYPE svg PUBLIC "-//W3C//DTD SVG 1.1//EN" "http://www.w3.org/Graphics/SVG/1.1/DTD/svg11.dtd">
<svg version="1.1" id="Layer_1" xmlns="http://www.w3.org/2000/svg" xmlns:xlink="http://www.w3.org/1999/xlink" x="0px" y="0px"
	 width="32px" height="32px" viewBox="0 0 32 32" enable-background="new 0 0 32 32" xml:space="preserve">
<g id="fWJOPm.tif">
	<g>
		<path fill-rule="evenodd" clip-rule="evenodd" fill="#B5B5B5" d="M11.277,32.069c-0.434-0.163-0.792-0.246-1.097-0.424
			c-1.164-0.675-2.309-1.384-3.464-2.074c-1.071-0.642-1.432-1.596-0.909-2.715c0.936-2.005-0.095-4.483-1.892-5.399
			c-0.561-0.285-1.228-0.477-1.853-0.495c-1.134-0.034-1.436-0.663-1.618-1.387c-0.609-2.417-0.575-4.846-0.003-7.264
			c0.204-0.865,0.69-1.458,1.746-1.424c1.522,0.048,3.265-1.393,3.759-2.977C6.25,6.936,6.226,5.99,5.816,5.042
			c-0.458-1.06-0.077-2.16,0.924-2.744c1.191-0.696,2.391-1.378,3.584-2.069c0.928-0.537,2.131-0.327,2.872,0.446
			c0.435,0.454,0.909,0.882,1.419,1.247c1.093,0.782,2.147,0.771,3.221-0.027c0.504-0.375,0.976-0.803,1.412-1.256
			c0.738-0.765,1.758-0.928,2.67-0.375c1.109,0.672,2.214,1.351,3.332,2.008c1.093,0.644,1.477,1.586,0.938,2.748
			c-0.877,1.888,0.08,4.177,1.438,5.12c0.709,0.493,1.467,0.762,2.327,0.765c0.778,0.002,1.215,0.274,1.47,1.021
			c0.474,1.383,0.6,2.823,0.575,4.278c-0.023,1.318-0.187,2.619-0.626,3.869c-0.188,0.531-0.572,0.855-1.164,0.849
			c-2.036-0.022-3.902,1.572-4.308,3.623c-0.146,0.744-0.053,1.481,0.253,2.197c0.507,1.184,0.166,2.19-0.932,2.861
			c-1.063,0.65-2.134,1.288-3.195,1.941c-0.981,0.604-1.808,0.46-2.642-0.363c-0.538-0.53-1.144-1.012-1.781-1.417
			c-1.103-0.703-2.158-0.437-3.134,0.328c-0.576,0.451-1.121,0.951-1.734,1.345C12.29,31.722,11.757,31.868,11.277,32.069z
			 M16.43,9.982c-3.321-0.12-5.942,2.681-6,5.831c-0.061,3.352,2.609,6.056,5.849,6.109c3.389,0.055,6.131-2.631,6.104-6.006
			C22.356,12.568,19.787,9.988,16.43,9.982z"/>
	</g>
</g>
</svg>
