<?xml version="1.0" encoding="utf-8"?>
<!-- Generator: Adobe Illustrator 16.0.3, SVG Export Plug-In . SVG Version: 6.00 Build 0)  -->
<!DOCTYPE svg PUBLIC "-//W3C//DTD SVG 1.1//EN" "http://www.w3.org/Graphics/SVG/1.1/DTD/svg11.dtd">
<svg version="1.1" id="Layer_1" xmlns="http://www.w3.org/2000/svg" xmlns:xlink="http://www.w3.org/1999/xlink" x="0px" y="0px"
	 width="32px" height="32px" viewBox="0 0 32 32" enable-background="new 0 0 32 32" xml:space="preserve">
<path fill="#FFFFFF" d="M16,0C7.163,0,0,7.163,0,16c0,8.836,7.163,16,16,16s16-7.164,16-16C32,7.163,24.837,0,16,0z M20.226,22.684
	c-1.056,0.945-2.442,1.43-4.159,1.43c-1.628,0-2.947-0.418-3.938-1.254c-1.101-0.924-1.717-2.289-1.849-4.049h2.618
	c0.044,1.012,0.352,1.805,0.969,2.354c0.549,0.506,1.275,0.771,2.178,0.771c0.99,0,1.782-0.287,2.354-0.837
	c0.506-0.506,0.771-1.122,0.771-1.87c0-0.902-0.287-1.562-0.814-1.98c-0.528-0.44-1.299-0.638-2.311-0.638h-1.1v-1.937h1.1
	c0.924,0,1.628-0.198,2.112-0.594c0.462-0.396,0.704-0.99,0.704-1.76c0-0.77-0.221-1.342-0.639-1.738
	c-0.461-0.396-1.144-0.594-2.046-0.594c-0.924,0-1.628,0.22-2.134,0.682c-0.528,0.462-0.836,1.166-0.924,2.112h-2.531
	c0.133-1.584,0.704-2.816,1.76-3.697c0.99-0.88,2.268-1.298,3.807-1.298c1.585,0,2.883,0.374,3.852,1.144
	c0.945,0.77,1.43,1.826,1.43,3.19c0,1.716-0.88,2.86-2.618,3.433c0.924,0.286,1.649,0.704,2.134,1.276
	c0.528,0.594,0.793,1.364,0.793,2.289C21.744,20.57,21.238,21.759,20.226,22.684z"/>
</svg>
