<?xml version="1.0" encoding="utf-8"?>
<!-- Generator: Adobe Illustrator 16.0.3, SVG Export Plug-In . SVG Version: 6.00 Build 0)  -->
<!DOCTYPE svg PUBLIC "-//W3C//DTD SVG 1.1//EN" "http://www.w3.org/Graphics/SVG/1.1/DTD/svg11.dtd">
<svg version="1.1" id="Layer_1" xmlns="http://www.w3.org/2000/svg" xmlns:xlink="http://www.w3.org/1999/xlink" x="0px" y="0px"
	 width="32px" height="32px" viewBox="0 0 32 32" enable-background="new 0 0 32 32" xml:space="preserve">
<path fill="#FFFFFF" d="M16,0C7.163,0,0,7.163,0,16c0,8.836,7.163,16,16,16s16-7.164,16-16C32,7.163,24.837,0,16,0z M21.479,23.805
	H10.521c0-1.605,0.507-2.992,1.562-4.18c0.572-0.66,1.783-1.629,3.609-2.883c1.012-0.704,1.716-1.298,2.156-1.76
	c0.682-0.77,1.033-1.606,1.033-2.486c0-0.858-0.242-1.496-0.682-1.915c-0.462-0.418-1.145-0.616-2.047-0.616
	c-0.968,0-1.693,0.33-2.178,0.99c-0.484,0.616-0.748,1.562-0.792,2.794h-2.575c0.022-1.76,0.529-3.168,1.541-4.247
	c1.034-1.144,2.398-1.716,4.092-1.716c1.52,0,2.773,0.44,3.764,1.32c0.968,0.88,1.451,2.002,1.451,3.411
	c0,1.364-0.527,2.596-1.539,3.719c-0.617,0.66-1.717,1.496-3.257,2.53c-1.606,1.056-2.575,1.979-2.927,2.772h7.745V23.805z"/>
</svg>
