<?xml version="1.0" encoding="utf-8"?>
<!-- Generator: Adobe Illustrator 16.0.3, SVG Export Plug-In . SVG Version: 6.00 Build 0)  -->
<!DOCTYPE svg PUBLIC "-//W3C//DTD SVG 1.1//EN" "http://www.w3.org/Graphics/SVG/1.1/DTD/svg11.dtd">
<svg version="1.1" id="Layer_1" xmlns="http://www.w3.org/2000/svg" xmlns:xlink="http://www.w3.org/1999/xlink" x="0px" y="0px"
	 width="32px" height="32px" viewBox="0 0 32 32" enable-background="new 0 0 32 32" xml:space="preserve">
<circle fill-rule="evenodd" clip-rule="evenodd" fill="#050F3C" cx="16" cy="16" r="16"/>
<g>
	<path fill="#FFFFFF" d="M14.17,12.719c0.002,0,0.004,0,0.007,0c-0.08,1.89-0.146,3.78-0.248,5.67
		c-0.026,0.479,0.151,0.726,0.572,0.923c2.384,1.12,4.754,2.268,7.135,3.394c0.943,0.446,0.704,0.524,1.272-0.382
		c0.215-0.343,0.14-0.509-0.175-0.719c-1.942-1.295-3.875-2.604-5.802-3.925c-0.149-0.104-0.306-0.319-0.313-0.49
		c-0.108-2.247-0.19-4.496-0.281-6.744c-0.05-1.231-0.114-2.462-0.153-3.694c-0.01-0.298-0.112-0.413-0.408-0.396
		c-0.301,0.018-0.604,0.024-0.903-0.001c-0.34-0.029-0.447,0.103-0.459,0.436C14.342,8.768,14.253,10.743,14.17,12.719z"/>
</g>
</svg>
