<?xml version="1.0" encoding="utf-8"?>
<!-- Generator: Adobe Illustrator 16.0.3, SVG Export Plug-In . SVG Version: 6.00 Build 0)  -->
<!DOCTYPE svg PUBLIC "-//W3C//DTD SVG 1.1//EN" "http://www.w3.org/Graphics/SVG/1.1/DTD/svg11.dtd">
<svg version="1.1" id="Layer_1" xmlns="http://www.w3.org/2000/svg" xmlns:xlink="http://www.w3.org/1999/xlink" x="0px" y="0px"
	 width="32px" height="32px" viewBox="0 0 32 32" enable-background="new 0 0 32 32" xml:space="preserve">
<path fill="#FF7A7C" d="M26,2H3C1.35,2,0,3.35,0,5v5.5c0,0,8.53,0,10.5,0c2.485,0,4.5,2.015,4.5,4.5s-2.015,4.5-4.5,4.5
	S0,19.5,0,19.5V25c0,1.65,1.35,3,3,3h15.263C18.097,27.359,18,26.691,18,26c0-4.418,3.582-8,8-8c1.062,0,2.073,0.211,3,0.587V5
	C29,3.35,27.65,2,26,2z"/>
<circle fill="#FF7A7C" cx="10" cy="15" r="3"/>
<g>
	<circle fill="#FF7A7C" cx="26" cy="26" r="6"/>
	<path fill="#FFFFFF" d="M28.475,28.976c-0.128,0-0.256-0.049-0.354-0.146l-4.949-4.951c-0.195-0.195-0.195-0.512,0-0.707
		s0.512-0.195,0.707,0l4.949,4.951c0.195,0.195,0.195,0.512,0,0.707C28.73,28.927,28.603,28.976,28.475,28.976z"/>
	<path fill="#FFFFFF" d="M23.525,28.976c-0.128,0-0.256-0.049-0.354-0.146c-0.195-0.195-0.195-0.512,0-0.707l4.949-4.951
		c0.195-0.195,0.512-0.195,0.707,0s0.195,0.512,0,0.707l-4.949,4.951C23.781,28.927,23.653,28.976,23.525,28.976z"/>
</g>
</svg>
