<?xml version="1.0" encoding="utf-8"?>
<!-- Generator: Adobe Illustrator 16.0.3, SVG Export Plug-In . SVG Version: 6.00 Build 0)  -->
<!DOCTYPE svg PUBLIC "-//W3C//DTD SVG 1.1//EN" "http://www.w3.org/Graphics/SVG/1.1/DTD/svg11.dtd">
<svg version="1.1" id="Layer_1" xmlns="http://www.w3.org/2000/svg" xmlns:xlink="http://www.w3.org/1999/xlink" x="0px" y="0px"
	 width="32px" height="32px" viewBox="0 0 32 32" enable-background="new 0 0 32 32" xml:space="preserve">
<circle fill="#FF625F" cx="16" cy="16" r="16"/>
<g>
	<path fill="#FFFFFF" d="M16.229,20.268c0.55,0,1.016-0.45,1.034-0.999l0.435-12.899c0.019-0.55-0.416-1-0.966-1h-1.464
		c-0.55,0-0.985,0.45-0.966,1l0.438,12.899c0.019,0.549,0.484,0.999,1.034,0.999H16.229z"/>
	<path fill="#FFFFFF" d="M16,22.783c-1.056,0-1.831,0.807-1.831,1.922c0,1.088,0.744,1.926,1.831,1.926
		c1.117,0,1.831-0.838,1.831-1.926C17.831,23.59,17.118,22.783,16,22.783z"/>
</g>
</svg>
