<?xml version="1.0" standalone="no"?>
<!DOCTYPE svg PUBLIC "-//W3C//DTD SVG 1.1//EN" "http://www.w3.org/Graphics/SVG/1.1/DTD/svg11.dtd" >
<svg xmlns="http://www.w3.org/2000/svg">
<metadata>Generated by IcoMoon</metadata>
<defs>
<font id="icomoon" horiz-adv-x="1024">
<font-face units-per-em="1024" ascent="960" descent="-64" />
<missing-glyph horiz-adv-x="1024" />
<glyph unicode="&#x20;" horiz-adv-x="512" d="" />
<glyph unicode="&#xe900;" glyph-name="account" d="M992 829.408h-192v32c0 17.664-14.304 32-32 32s-32-14.336-32-32v-32h-448v32c0 17.664-14.304 32-32 32s-32-14.336-32-32v-32h-192c-17.696 0-32-14.336-32-32v-762.848c0-17.696 14.304-32 32-32h960c17.696 0 32 14.304 32 32v762.848c0 17.696-14.304 32-32 32zM960 66.56h-896v698.848h160v-32c0-17.664 14.304-32 32-32s32 14.336 32 32v32h448v-32c0-17.664 14.304-32 32-32s32 14.336 32 32v32h160v-698.848zM340 331.136c74.368 0 134.88 60.48 134.88 134.816 0 74.368-60.512 134.88-134.88 134.88s-134.88-60.512-134.88-134.88c0-74.368 60.512-134.816 134.88-134.816zM340 536.832c39.072 0 70.88-31.808 70.88-70.88s-31.808-70.816-70.88-70.816-70.88 31.744-70.88 70.816c0 39.072 31.808 70.88 70.88 70.88zM340 318.016c-104.224 0-212 0-212-134.88v-25.696c0-17.696 14.304-32 32-32h360c17.696 0 32 14.304 32 32v25.696c0 134.88-107.776 134.88-212 134.88zM192.096 189.44c1.76 58.88 30.080 64.576 147.904 64.576s146.144-5.696 147.904-64.576h-295.808zM608 536.832c0-17.664 14.304-32 32-32h224c17.696 0 32 14.336 32 32s-14.304 32-32 32h-224c-17.696 0-32-14.336-32-32zM864 440.832h-224c-17.696 0-32-14.336-32-32s14.304-32 32-32h224c17.696 0 32 14.336 32 32s-14.304 32-32 32zM864 312.8h-224c-17.696 0-32-14.304-32-32s14.304-32 32-32h224c17.696 0 32 14.304 32 32s-14.304 32-32 32z" />
<glyph unicode="&#xe901;" glyph-name="clock" d="M128 416c0 35.264 28.704 64 64 64h640c35.328 0 64-28.736 64-64v-352c0-35.328-28.672-64-64-64h-640c-35.296 0-64 28.672-64 64v352zM64 416v-352c0-70.4 57.6-128 128-128h640c70.4 0 128 57.6 128 128v352c0 70.368-57.6 128-128 128h-640c-70.4 0-128-57.632-128-128v0zM256 480h-64v176c0 167.616 136.384 304 304 304s304-136.384 304-304v-48h-64v48c0 132.352-107.648 240-240 240s-240-107.648-240-240v-176zM576 288c0-35.346-28.654-64-64-64s-64 28.654-64 64c0 35.346 28.654 64 64 64s64-28.654 64-64zM480 256h64v-160h-64v160z" />
<glyph unicode="&#xe902;" glyph-name="close_eye" d="M905.152 489.088c80.864 84.512 115.872 169.344 116.576 171.008 6.56 16.416-1.44 35.040-17.856 41.6-16.288 6.496-35.040-1.408-41.6-17.824-1.184-2.976-123.712-299.872-450.272-299.872-325.344 0-445.344 287.68-450.304 299.936-6.592 16.384-25.184 24.288-41.6 17.728-16.384-6.592-24.352-25.152-17.824-41.568 0.672-1.696 35.68-86.528 116.576-171.008l-106.048-79.488c-14.144-10.592-16.992-30.656-6.4-44.768 6.304-8.416 15.904-12.832 25.632-12.832 6.656 0 13.408 2.080 19.168 6.4l115.072 86.272c41.696-34.976 92.224-67.072 152.352-89.984l-60.352-150.848c-6.592-16.416 1.408-35.040 17.824-41.6 3.904-1.536 7.936-2.24 11.904-2.24 12.704 0 24.704 7.584 29.728 20.128l62.208 155.456c40.288-9.824 84.192-15.584 132.064-15.584 36.448 0 70.56 3.36 102.624 9.28l59.648-149.152c5.024-12.544 17.056-20.128 29.728-20.128 3.968 0 8 0.704 11.872 2.272 16.416 6.56 24.416 25.184 17.856 41.6l-56.448 141.056c72.672 22.976 132.416 59.456 180.448 99.776l115.072-86.304c5.76-4.32 12.48-6.4 19.168-6.4 9.76 0 19.328 4.416 25.632 12.8 10.624 14.112 7.744 34.176-6.4 44.768l-106.048 79.52z" />
<glyph unicode="&#xe903;" glyph-name="exclamation_mark" d="M512 960c-282.784 0-512-229.248-512-512 0-282.784 229.216-512 512-512s512 229.216 512 512c0 282.752-229.216 512-512 512zM512 96c-35.328 0-64 28.672-64 64s28.672 64 64 64 64-28.672 64-64-28.672-64-64-64zM560.512 320h-96l-16.512 448h128l-15.488-448z" />
<glyph unicode="&#xe904;" glyph-name="funnel" d="M976 754.304c0 104.768-200.64 189.696-448 189.696-247.424 0-448-84.928-448-189.696 0-46.656 0-34.304 0-66.304 0-28.384 235.040-308.64 288-371.36v-396.64l320 128v268.736c52.928 63.68 288 347.648 288 371.264 0 32 0 39.168 0 66.304zM528 628.608c-230.848 0-384 75.648-384 125.696s153.152 125.696 384 125.696 384-75.648 384-125.696-153.152-125.696-384-125.696z" />
<glyph unicode="&#xe905;" glyph-name="info" d="M864 960h-704c-35.2 0-64-28.8-64-64v-896c0-35.2 28.8-64 64-64h704c35.2 0 64 28.8 64 64v896c0 35.2-28.8 64-64 64zM864 0h-704v896h704v-896zM576 672h192c17.696 0 32 14.336 32 32s-14.304 32-32 32h-192c-17.696 0-32-14.336-32-32s14.304-32 32-32zM256 352h512c17.696 0 32 14.304 32 32s-14.304 32-32 32h-512c-17.664 0-32-14.304-32-32s14.336-32 32-32zM256 160h512c17.696 0 32 14.304 32 32s-14.304 32-32 32h-512c-17.664 0-32-14.304-32-32s14.336-32 32-32zM288 544h160c35.2 0 64 28.8 64 64v160c0 35.2-28.8 64-64 64h-160c-35.2 0-64-28.8-64-64v-160c0-35.2 28.8-64 64-64zM288 768h160v-160h-160v160z" />
<glyph unicode="&#xe906;" glyph-name="invoice" d="M995.744 558.656c16.256 1.76 28.576 15.456 28.576 31.808v241.536c0 17.664-14.304 32-32 32h-960.608c-17.664 0-32-14.336-32-32v-241.6c0-16.288 12.256-29.984 28.448-31.808 56.768-6.368 99.552-53.92 99.552-110.592s-42.784-104.224-99.52-110.56c-16.224-1.824-28.48-15.488-28.48-31.808v-241.632c0-17.696 14.336-32 32-32h960.608c17.696 0 32 14.304 32 32v241.568c0 16.352-12.32 30.048-28.576 31.808-57.056 6.144-100.064 53.728-100.064 110.624 0 56.928 43.008 104.48 100.064 110.656zM960.32 279.2v-183.2h-896.608v183.36c74.656 20.96 128 89.056 128 168.64 0 79.52-53.344 147.616-128 168.64v183.36h896.608v-183.2c-75.008-20.8-128.64-88.96-128.64-168.8 0-79.872 53.632-148.032 128.64-168.8zM767.68 640h-480c-17.664 0-32-14.336-32-32s14.336-32 32-32h480c17.696 0 32 14.336 32 32s-14.304 32-32 32zM671.68 480h-384c-17.664 0-32-14.336-32-32s14.336-32 32-32h384c17.696 0 32 14.336 32 32s-14.304 32-32 32zM479.712 320h-192c-17.664 0-32-14.304-32-32s14.336-32 32-32h192c17.664 0 32 14.304 32 32s-14.368 32-32 32z" />
<glyph unicode="&#xe907;" glyph-name="loan" d="M976.128 319.552c-16.736 5.952-34.944-3.040-40.672-19.744-62.496-180.128-232.64-301.152-423.456-301.152-247.008 0-448 200.96-448 448 0 189.568 120.064 359.36 298.688 422.528 16.672 5.888 25.376 24.16 19.488 40.832s-24.192 25.408-40.832 19.488c-204.16-72.16-341.344-266.176-341.344-482.848 0-282.336 229.696-512 512-512 218.080 0 412.512 138.304 483.904 344.224 5.792 16.672-3.104 34.912-19.776 40.672zM378.048 723.968c-10.304 14.4-30.304 17.696-44.672 7.456-14.4-10.272-17.728-30.272-7.456-44.64l146.752-205.408h-120.672c-17.696 0-32-14.336-32-32s14.304-32 32-32h128v-64h-128c-17.696 0-32-14.304-32-32s14.304-32 32-32h128v-96c0-17.696 14.304-32 32-32s32 14.304 32 32v96h128c17.696 0 32 14.304 32 32s-14.304 32-32 32h-128v64h128c17.696 0 32 14.336 32 32s-14.304 32-32 32h-120.672l146.752 205.408c10.24 14.368 6.944 34.368-7.424 44.64-14.368 10.24-34.368 6.912-44.64-7.424l-134.016-187.584-133.952 187.552zM560 913.344c0-26.51-21.49-48-48-48s-48 21.49-48 48c0 26.51 21.49 48 48 48s48-21.49 48-48zM1024 449.344c0-26.51-21.49-48-48-48s-48 21.49-48 48c0 26.51 21.49 48 48 48s48-21.49 48-48zM969.76 678.4c0-26.51-21.49-48-48-48s-48 21.49-48 48c0 26.51 21.49 48 48 48s48-21.49 48-48zM796.128 849.792c0-26.51-21.49-48-48-48s-48 21.49-48 48c0 26.51 21.49 48 48 48s48-21.49 48-48z" />
<glyph unicode="&#xe908;" glyph-name="lock" d="M864 512h-640v96c0 158.784 129.216 288 288 288 158.816 0 288-129.216 288-288 0-17.664 14.304-32 32-32s32 14.336 32 32c0 194.080-157.92 352-352 352s-352-157.92-352-352v-96c-52.928 0-96-43.072-96-96v-384c0-52.928 43.072-96 96-96h704c52.928 0 96 43.072 96 96v384c0 52.928-43.072 96-96 96zM896 32c0-17.664-14.336-32-32-32h-704c-17.632 0-32 14.336-32 32v384c0 17.632 14.368 32 32 32h704c17.664 0 32-14.368 32-32v-384zM512 352c-35.328 0-64-28.672-64-64 0-23.616 12.96-44.032 32-55.136v-136.864c0-17.696 14.336-32 32-32s32 14.304 32 32v136.864c19.072 11.104 32 31.488 32 55.136 0 35.328-28.672 64-64 64z" />
<glyph unicode="&#xe909;" glyph-name="look" d="M1021.728 459.904c-1.376 3.392-140.32 340.096-509.728 340.096-369.376 0-508.352-336.704-509.728-340.096-3.040-7.648-3.040-16.128 0-23.776 1.376-3.424 140.352-340.128 509.728-340.128 369.408 0 508.352 336.704 509.728 340.096 3.008 7.648 3.008 16.16 0 23.808zM512 160c-291.616 0-418.272 231.136-444.96 287.872 26.688 55.456 155.872 288.128 444.96 288.128 291.616 0 418.24-231.104 444.96-287.872-26.688-55.456-155.872-288.128-444.96-288.128zM512 640c-105.888 0-192-86.112-192-192s86.112-192 192-192 192 86.112 192 192-86.112 192-192 192zM512 320c-70.592 0-128 57.408-128 128s57.408 128 128 128c70.592 0 128-57.408 128-128s-57.408-128-128-128z" />
<glyph unicode="&#xe90a;" glyph-name="phone" d="M560 112c0-26.51-21.49-48-48-48s-48 21.49-48 48c0 26.51 21.49 48 48 48s48-21.49 48-48zM737.44 960h-450.848c-70.4 0-128-57.6-128-128v-768c0-70.4 57.6-128 128-128h450.848c70.4 0 128 57.6 128 128v768c0 70.4-57.6 128-128 128zM801.44 64c0-35.328-28.672-64-64-64h-450.848c-35.296 0-64 28.672-64 64v192h481.408v64h-481.408v512c0 35.296 28.704 64 64 64h450.848c35.328 0 64-28.704 64-64v-768z" />
<glyph unicode="&#xe90b;" glyph-name="question_mark" d="M512 960c-282.752 0-512-229.248-512-512s229.248-512 512-512c282.752 0 512 229.248 512 512s-229.248 512-512 512zM550.56 149.664c-12.128-11.328-27.744-17.376-45.088-17.376-17.376 0-32.96 6.048-45.12 18.24-12.096 12.128-18.176 26.88-18.176 44.256 0 18.144 6.080 32.992 18.176 44.288 12.16 12.128 27.744 17.216 45.12 17.216 18.24 0 33.856-5.088 45.984-17.216 12.128-11.296 18.176-26.048 18.176-44.288s-6.944-32.896-19.072-45.12zM675.488 487.936c-7.808-9.6-32.128-32.064-72.832-67.648-16.48-13.824-28.672-29.504-36.416-45.088-9.568-17.312-13.92-36.416-13.92-57.248v-14.688h-92.8v14.688c0 32.128 5.184 59.872 17.344 82.4 11.264 24.352 44.256 59.84 98.048 107.552l14.72 16.448c15.584 19.968 24.288 40.768 24.288 63.328 0 30.368-8.672 53.76-25.12 71.104-17.376 17.376-42.496 26.016-73.728 26.016-39.008 0-67.648-12.128-84.992-37.28-15.616-20.8-23.392-50.304-23.392-88.448h-91.168c0 63.328 18.208 112.736 54.656 149.152 36.448 37.312 86.72 55.488 150.912 55.488 55.52 0 100.672-14.72 135.328-45.952 34.688-30.368 52.064-72 52.064-124.032 0.032-42.464-11.328-78.016-32.992-105.792z" />
<glyph unicode="&#xe90c;" glyph-name="supervision" d="M937.408 830.56l-416.032 128.032c-6.112 1.92-12.672 1.92-18.816 0l-416-128.032c-13.44-4.128-22.56-16.544-22.56-30.56v-480c0-193.44 338.816-342.176 427.744-377.888 5.312-3.872 11.872-6.112 18.848-6.112h2.784c6.656 0 12.8 2.112 17.824 5.728 87.424 34.976 428.8 184.128 428.8 378.272v480c0 14.016-9.152 26.432-22.592 30.56zM896 320c0-128.32-244.672-260.576-384-317.024-139.36 56.448-384 188.704-384 317.024v456.352l384 118.176 384-118.176v-456.352zM352 607.968c0-88.224 71.776-160 160-160s160 71.776 160 160c0 88.256-71.776 160.032-160 160.032s-160-71.776-160-160.032zM512 704c52.928 0 96-43.104 96-96.032s-43.072-96-96-96-96 43.072-96 96 43.072 96.032 96 96.032zM448 416c-143.488 0-215.616-105.76-218.624-110.24-7.2-10.752-7.2-24.736 0-35.488 2.816-4.224 71.008-104.224 268.32-202.88 4.48-2.272 9.408-3.392 14.304-3.392 4.288 0 8.576 0.864 12.64 2.592 230.528 98.816 270.016 200.064 273.728 211.296 3.136 9.376 1.76 19.648-3.712 27.872-3.040 4.48-75.168 110.24-218.656 110.24h-128zM729.728 284.544c-18.208-27.136-72.64-89.12-216.672-153.152-123.648 63.84-189.024 126.592-215.68 156.416 23.072 24.096 73.184 64.192 150.624 64.192h128c81.12 0 132.224-44 153.728-67.456z" />
<glyph unicode="&#xe90d;" glyph-name="tick_mark" d="M512 960c-282.784 0-512-229.248-512-512 0-282.784 229.216-512 512-512s512 229.216 512 512c0 282.752-229.216 512-512 512zM833.984 574.112l-351.936-352.704c-9.024-9.024-21.248-14.080-33.984-14.080v0c-12.736 0-24.992 5.088-33.984 14.112l-192.064 192.672c-18.72 18.784-18.656 49.184 0.096 67.904 18.752 18.688 49.152 18.656 67.904-0.096l158.080-158.624 317.952 318.656c18.72 18.784 49.088 18.784 67.872 0.064 18.752-18.752 18.752-49.152 0.064-67.904z" />
<glyph unicode="&#xe90e;" glyph-name="magnifier" d="M416 960c-229.76 0-416-186.24-416-416 0-229.728 186.24-416 416-416s416 186.272 416 416c0 229.76-186.24 416-416 416zM416 224c-176.736 0-320 143.264-320 320s143.264 320 320 320 320-143.264 320-320-143.264-320-320-320zM638.048 254.048l304-304c9.376-9.376 21.664-14.048 33.952-14.048s24.576 4.672 33.952 14.048c18.752 18.752 18.752 49.12 0 67.872l-304 304-67.904-67.872z" />
<glyph unicode="&#xe90f;" glyph-name="ascending-order" d="M496-64h32l320 416v32h-672v-32l320-416zM742.624 320l-230.624-299.808-230.624 299.808h461.248zM848 512h-672v32l320 416h32l320-416z" />
<glyph unicode="&#xe910;" glyph-name="dscending-order" d="M528 960h-32l-320-416v-32h672v32l-320 416zM281.344 576l230.656 299.84 230.624-299.84h-461.28zM176 384h672v-32l-320-416h-32l-320 416z" />
<glyph unicode="&#xe911;" glyph-name="cross" d="M579.872 448l328.128 328.096c18.752 18.72 18.752 49.12 0 67.872s-49.12 18.752-67.872 0l-328.128-328.096-328.096 328.096c-18.752 18.752-49.12 18.752-67.872 0s-18.752-49.152 0-67.872l328.096-328.096-328.096-328.096c-18.752-18.752-18.752-49.12 0-67.872 9.376-9.376 21.664-14.048 33.952-14.048s24.576 4.672 33.952 14.048l328.064 328.096 328.096-328.096c9.376-9.376 21.664-14.048 33.952-14.048s24.576 4.672 33.952 14.048c18.752 18.752 18.752 49.12 0 67.872l-328.128 328.096z" />
<glyph unicode="&#xe912;" glyph-name="cross1" d="M512 656.904c-32.964 0-59.686 26.724-59.686 59.686v179.060c0 32.964 26.722 59.686 59.686 59.686s59.688-26.722 59.688-59.686v-179.060c0-32.964-26.726-59.686-59.688-59.686zM512-36.956c-20.602 0-37.304 16.702-37.304 37.304v179.060c0 20.602 16.702 37.304 37.304 37.304 20.604 0 37.304-16.704 37.304-37.304v-179.060c0-20.602-16.7-37.304-37.304-37.304zM377.756 624.64c-19.34 0-38.146 10.034-48.512 27.988l-89.53 155.070c-15.452 26.764-6.282 60.986 20.482 76.438 26.762 15.45 60.986 6.284 76.438-20.482l89.53-155.072c15.452-26.764 6.282-60.986-20.482-76.438-8.81-5.084-18.432-7.504-27.926-7.504zM735.856 26.744c-11.602 0-22.886 6.022-29.108 16.792l-89.53 155.070c-9.27 16.056-3.77 36.592 12.29 45.864 16.056 9.264 36.59 3.77 45.864-12.292l89.532-155.068c9.27-16.058 3.768-36.592-12.292-45.864-5.286-3.048-11.060-4.502-16.756-4.502zM279.344 530.060c-8.86 0-17.838 2.256-26.064 7.006l-155.072 89.53c-24.978 14.422-33.538 46.362-19.116 71.342s46.364 33.538 71.342 19.116l155.070-89.53c24.98-14.422 33.538-46.362 19.116-71.34-9.668-16.756-27.226-26.124-45.276-26.124zM899.648 194.326c-5.064 0-10.196 1.29-14.894 4.004l-155.068 89.53c-14.274 8.24-19.164 26.494-10.924 40.768s26.496 19.166 40.766 10.924l155.070-89.532c14.274-8.24 19.164-26.492 10.924-40.766-5.53-9.574-15.562-14.928-25.874-14.928zM243.41 399.504h-179.060c-26.784 0-48.496 21.712-48.496 48.496s21.712 48.496 48.496 48.496h179.060c26.784 0 48.496-21.712 48.496-48.496s-21.712-48.496-48.496-48.496zM959.65 418.156c-0.002 0 0 0 0 0h-179.060c-16.482 0.002-29.844 13.364-29.844 29.844s13.364 29.844 29.844 29.844c0.002 0 0 0 0 0h179.060c16.482 0 29.844-13.362 29.844-29.844s-13.364-29.844-29.844-29.844zM124.366 179.402c-15.472 0-30.518 8.028-38.81 22.39-12.362 21.41-5.026 48.79 16.384 61.148l155.072 89.532c21.41 12.368 48.79 5.028 61.15-16.384 12.362-21.412 5.026-48.79-16.384-61.15l-155.072-89.53c-7.050-4.070-14.748-6.006-22.34-6.006zM744.632 552.448c-10.314 0-20.346 5.352-25.874 14.926-8.24 14.274-3.35 32.526 10.924 40.768l155.070 89.528c14.272 8.236 32.526 3.352 40.768-10.922 8.24-14.274 3.35-32.526-10.924-40.768l-155.070-89.528c-4.7-2.714-9.83-4.004-14.894-4.004zM288.136 19.284c-6.962 0-14.016 1.774-20.48 5.504-19.626 11.332-26.35 36.428-15.020 56.054l89.53 155.070c11.33 19.628 36.426 26.352 56.054 15.022 19.626-11.332 26.35-36.43 15.020-56.054l-89.53-155.072c-7.598-13.166-21.392-20.524-35.574-20.524zM646.266 650.758c-5.062 0-10.196 1.29-14.894 4.002-14.274 8.242-19.164 26.494-10.924 40.766l89.534 155.070c8.24 14.274 26.492 19.166 40.766 10.922s19.164-26.494 10.924-40.766l-89.532-155.070c-5.53-9.57-15.56-14.924-25.874-14.924z" />
<glyph unicode="&#xe913;" glyph-name="time" d="M512 960c-282.752 0-512-229.248-512-512 0-282.784 229.248-512 512-512 282.784 0 512 229.216 512 512 0 282.752-229.216 512-512 512zM743.167 225.167c-9.396-13.2-27.711-16.283-40.909-6.886l-254.258 133.719 17.6 399.667h0.090c0 16.164 13.103 29.267 29.267 29.267s29.268-13.103 29.268-29.267l17.345-348.306 190.55-134.818c1.43-0.698 2.822-1.516 4.161-2.469 13.198-9.394 16.281-27.71 6.886-40.907z" />
<glyph unicode="&#xe914;" glyph-name="done" d="M512 960c-282.784 0-512-229.216-512-512 0-282.752 229.216-512 512-512 282.752 0 512 229.248 512 512 0 282.784-229.248 512-512 512zM776.32 613.408l-330.848-321.696c-24.896-24.864-41.632-23.296-64.832-0.064l-131.616 132.224c-12.64 12.64-12.672 33.184 0.032 45.888 12.64 12.64 33.152 12.64 45.792 0l122.304-90.752 324.192 269.344c9.632 9.632 25.248 9.632 34.88 0 9.728-9.664 9.728-25.312 0.096-34.944z" />
<glyph unicode="&#xe915;" glyph-name="info1" d="M512 960c-282.784 0-512-229.216-512-512s229.216-512 512-512 512 229.216 512 512-229.216 512-512 512zM576 128c0-17.6-14.4-32-32-32h-64c-17.6 0-32 14.4-32 32v384c0 17.6 14.4 32 32 32h64c17.6 0 32-14.4 32-32v-384zM512 640c-44.192 0-80 35.808-80 80s35.808 80 80 80 80-35.808 80-80-35.808-80-80-80z" />
</font>
</defs>
</svg>
