<?xml version="1.0" encoding="utf-8"?>
<!-- Generator: Adobe Illustrator 16.0.3, SVG Export Plug-In . SVG Version: 6.00 Build 0)  -->
<!DOCTYPE svg PUBLIC "-//W3C//DTD SVG 1.1//EN" "http://www.w3.org/Graphics/SVG/1.1/DTD/svg11.dtd">
<svg version="1.1" id="Layer_1" xmlns="http://www.w3.org/2000/svg" xmlns:xlink="http://www.w3.org/1999/xlink" x="0px" y="0px"
	 width="32px" height="32px" viewBox="0 0 32 32" enable-background="new 0 0 32 32" xml:space="preserve">
<rect fill="#F4EEE7" width="32" height="32"/>
<g>
	<path fill="#58879E" d="M11.092,23.085h9l-3.342,3.949l-1.671-0.051c0,0-3.369-2.212-3.369-2.314S11.092,23.085,11.092,23.085z"/>
	<g>
		<g>
			<rect x="11.782" y="17.922" fill="#F8BBA4" width="7.752" height="10.933"/>
			<path fill="#CF876E" d="M11.782,20.749c1.109,1.277,2.809,2.097,4.717,2.097c1.107,0,2.142-0.28,3.035-0.761v-4.163h-7.752
				V20.749z"/>
		</g>
		<g>
			<path fill="#F8BBA4" d="M9.669,8.831c0-3.243,2.628-5.873,5.873-5.873c3.244,0,5.872,2.63,5.872,5.873v6.724
				c0,3.245-2.628,5.875-5.872,5.875c-3.245,0-5.873-2.63-5.873-5.875V8.831z"/>
			<path fill="#1D1F21" d="M24.462,6.896c-0.09-0.227-1.175-0.362-2.007-1.534c-0.14-0.197,0.825-0.592,0.788-0.854
				c-0.037-0.264-0.938-0.564-3.301-2.538c-1.55-1.296-5.25-0.705-5.25-0.705s0.078-0.692-0.057-0.776S9.583,2.555,9.515,4.042
				C8.376,4.168,7.308,4.554,7.308,4.79s0.85,0.379,1.135,0.662c-0.662,1.323-0.616,4.603,0.198,5.907
				c0.11,0.176,0.778,4.351,0.778,4.351l0.343,0.347l0.021-3.311c0,0,0.533-2.611,0.125-4.568c0.752-0.467,1.507-1.189,2.196-2.041
				c0.271-0.133,1.935,0.062,3.635,0.037c1.277-0.02,3.525-0.182,3.525-0.182l2.034,1.537c0,0-0.453,2.71-0.406,3.119
				c0.046,0.408,0.295,1.621,0.295,1.621l0.108,3.688l0.282-0.368l0.474-2.864l0.489-1.423c0,0,0.443-0.687,0.747-1.558
				c0.403-1.16,0.136-1.989,0.136-1.989S24.553,7.123,24.462,6.896z"/>
			<path fill="#F8BBA4" d="M10.153,12.069c0,0-0.852-1.812-1.52-1.088c-0.67,0.726-0.305,4.351,1.338,4.259L10.153,12.069z"/>
			<path fill="#F8BBA4" d="M20.745,12.176c0,0,0.958-1.918,1.628-1.194c0.67,0.726,0.307,4.351-1.337,4.259L20.745,12.176z"/>
		</g>
	</g>
	<g>
		<polygon fill="#87D7FF" points="2,32 2,28.085 9.426,24.251 15.342,27.001 15.842,27.001 21.758,24.251 30,28.335 30,32 		"/>
		<polygon fill="#FFFFFF" points="11.092,23.085 15.342,27.001 11.676,30.001 9.426,24.251 		"/>
		<polygon fill="#FFFFFF" points="20.092,23.085 15.842,27.001 19.508,30.001 21.758,24.251 		"/>
	</g>
	<polygon fill="#2D4957" points="14.075,28.099 14.968,29.275 14.319,31.993 16.915,31.993 16.226,29.275 17.037,28.018 
		15.842,27.001 15.342,27.001 	"/>
</g>
</svg>
