<?xml version="1.0" encoding="utf-8"?>
<!-- Generator: Adobe Illustrator 16.0.3, SVG Export Plug-In . SVG Version: 6.00 Build 0)  -->
<!DOCTYPE svg PUBLIC "-//W3C//DTD SVG 1.1//EN" "http://www.w3.org/Graphics/SVG/1.1/DTD/svg11.dtd">
<svg version="1.1" id="Layer_1" xmlns="http://www.w3.org/2000/svg" xmlns:xlink="http://www.w3.org/1999/xlink" x="0px" y="0px"
	 width="32px" height="32px" viewBox="0 0 32 32" enable-background="new 0 0 32 32" xml:space="preserve">
<rect fill="#EEF1FF" width="32" height="32"/>
<polygon fill="#E0E5F9" points="26,32 21,32 21,9 12,13 12,12 21,8 26,12 "/>
<polygon fill="#E0E5F9" points="19,32 15,32 15,14 5,18 5,17 15,13 19,17 "/>
<rect x="5" y="17" fill="#E0E5F9" width="1" height="15"/>
<polygon fill="#E0E5F9" points="13,19 8,21 8,18 13,16 "/>
<polygon fill="#E0E5F9" points="13,24 8,26 8,23 13,21 "/>
<polygon fill="#E0E5F9" points="13,29 8,31 8,28 13,26 "/>
</svg>
