<?xml version="1.0" encoding="utf-8"?>
<!-- Generator: Adobe Illustrator 16.0.3, SVG Export Plug-In . SVG Version: 6.00 Build 0)  -->
<!DOCTYPE svg PUBLIC "-//W3C//DTD SVG 1.1//EN" "http://www.w3.org/Graphics/SVG/1.1/DTD/svg11.dtd">
<svg version="1.1" id="Layer_1" xmlns="http://www.w3.org/2000/svg" xmlns:xlink="http://www.w3.org/1999/xlink" x="0px" y="0px"
	 width="32px" height="32px" viewBox="0.5 0.5 32 32" enable-background="new 0.5 0.5 32 32" xml:space="preserve">
<path fill="#BBBEC3" d="M30.5,6.428c0-3.274-6.269-5.928-14-5.928c-7.732,0-14,2.654-14,5.928c0,1.458,0,1.072,0,2.072
	c0,0.887,7.345,9.644,9,11.605V32.5l10-4v-8.399c1.654-1.989,9-10.863,9-11.601C30.5,7.5,30.5,7.276,30.5,6.428z M16.5,10.356
	c-7.214,0-12-2.364-12-3.928S9.286,2.5,16.5,2.5s12,2.364,12,3.928S23.714,10.356,16.5,10.356z"/>
</svg>
