<?xml version="1.0" encoding="utf-8"?>
<!-- Generator: Adobe Illustrator 16.0.3, SVG Export Plug-In . SVG Version: 6.00 Build 0)  -->
<!DOCTYPE svg PUBLIC "-//W3C//DTD SVG 1.1//EN" "http://www.w3.org/Graphics/SVG/1.1/DTD/svg11.dtd">
<svg version="1.1" id="Layer_1" xmlns="http://www.w3.org/2000/svg" xmlns:xlink="http://www.w3.org/1999/xlink" x="0px" y="0px"
	 width="32px" height="32px" viewBox="0 0 32 32" enable-background="new 0 0 32 32" xml:space="preserve">
<rect x="6" y="20" fill="#D1DEE5" width="16" height="2"/>
<circle fill="#D1DEE5" cx="16" cy="26.5" r="1.5"/>
<path fill="#D1DEE5" d="M23.045,2c1.103,0,2,0.897,2,2v24c0,1.103-0.897,2-2,2H8.956c-1.103,0-2-0.897-2-2V4c0-1.103,0.897-2,2-2
	H23.045 M23.045,0H8.956c-2.2,0-4,1.8-4,4v24c0,2.2,1.8,4,4,4h14.089c2.2,0,4-1.8,4-4V4C27.045,1.8,25.245,0,23.045,0L23.045,0z"/>
</svg>
