<?xml version="1.0" encoding="utf-8"?>
<!-- Generator: Adobe Illustrator 16.0.3, SVG Export Plug-In . SVG Version: 6.00 Build 0)  -->
<!DOCTYPE svg PUBLIC "-//W3C//DTD SVG 1.1//EN" "http://www.w3.org/Graphics/SVG/1.1/DTD/svg11.dtd">
<svg version="1.1" id="Layer_1" xmlns="http://www.w3.org/2000/svg" xmlns:xlink="http://www.w3.org/1999/xlink" x="0px" y="0px"
	 width="32px" height="32px" viewBox="0.5 0.5 32 32" enable-background="new 0.5 0.5 32 32" xml:space="preserve">
<g>
	<polygon fill="#5D2F1B" points="1.5,23.501 0.5,17.5 32.5,17.5 31.5,23.501 16.485,23.5 	"/>
	<path fill="#F7902B" d="M32.5,12.5c0-6.6-4-12-16-12s-16,5.4-16,12c0,0,9.5,1,16,1S32.5,12.5,32.5,12.5z"/>
	<polygon fill="#FFD500" points="32.5,17.5 16.5,21.5 0.5,17.5 0.5,16.501 32.5,16.501 	"/>
	<path fill="#00A645" d="M0.5,24.5c2.133,0,3.2,2.134,5.333,2.134s3.2-2.134,5.333-2.134c2.134,0,3.201,2.134,5.334,2.134
		s3.2-2.134,5.334-2.134c2.133,0,3.199,2.134,5.332,2.134c2.134,0,3.201-2.134,5.334-2.134v-2l-16.015,1L0.5,22.5V24.5z"/>
	<g>
		<path fill="#F7902B" d="M21.834,26.5c-2.134,0-3.201,2.134-5.334,2.134S13.3,26.5,11.166,26.5c-2.133,0-3.199,2.134-5.333,2.134
			S2.633,26.5,0.5,26.5v2c0,2.2,1.8,4,4,4h24c2.2,0,4-1.8,4-4v-2c-2.133,0-3.2,2.134-5.334,2.134
			C25.033,28.634,23.967,26.5,21.834,26.5z"/>
	</g>
	<polygon fill="#F9555A" points="30.5,16.5 16.5,17.5 2.5,16.5 0.5,14.5 32.5,14.5 	"/>
</g>
</svg>
