<?xml version="1.0" encoding="utf-8"?>
<!-- Generator: Adobe Illustrator 16.0.3, SVG Export Plug-In . SVG Version: 6.00 Build 0)  -->
<!DOCTYPE svg PUBLIC "-//W3C//DTD SVG 1.1//EN" "http://www.w3.org/Graphics/SVG/1.1/DTD/svg11.dtd">
<svg version="1.1" id="Layer_1" xmlns="http://www.w3.org/2000/svg" xmlns:xlink="http://www.w3.org/1999/xlink" x="0px" y="0px"
	 width="32px" height="32px" viewBox="0 0 32 32" enable-background="new 0 0 32 32" xml:space="preserve">
<path fill="#D1DEE5" d="M4,17c0-1.102,0.897-2,2-2h20c1.103,0,2,0.898,2,2v11c0,1.104-0.897,2-2,2H6c-1.103,0-2-0.896-2-2V17 M2,17
	v11c0,2.2,1.8,4,4,4h20c2.2,0,4-1.8,4-4V17c0-2.199-1.8-4-4-4H6C3.8,13,2,14.801,2,17L2,17z"/>
<path fill="#D1DEE5" d="M8,15H6V9.5C6,4.262,10.262,0,15.5,0S25,4.262,25,9.5V11h-2V9.5C23,5.364,19.636,2,15.5,2S8,5.364,8,9.5V15z
	"/>
<circle fill="#D1DEE5" cx="16" cy="21" r="2"/>
<rect x="15" y="22" fill="#D1DEE5" width="2" height="5"/>
</svg>
