<?xml version="1.0" encoding="utf-8"?>
<!-- Generator: Adobe Illustrator 16.0.3, SVG Export Plug-In . SVG Version: 6.00 Build 0)  -->
<!DOCTYPE svg PUBLIC "-//W3C//DTD SVG 1.1//EN" "http://www.w3.org/Graphics/SVG/1.1/DTD/svg11.dtd">
<svg version="1.1" id="Layer_1" xmlns="http://www.w3.org/2000/svg" xmlns:xlink="http://www.w3.org/1999/xlink" x="0px" y="0px"
	 width="192px" height="32px" viewBox="-9.5 -16.5 192 32" enable-background="new -9.5 -16.5 192 32" xml:space="preserve">
<g>
	<path fill="#FFFFFF" d="M58.452-0.382c-0.912-0.913-2.84-2.19-4.456-2.972l1.408-1.72c1.591,0.705,3.545,1.875,4.535,2.762
		L58.452-0.382z M60.537,2.771c-1.119,2.739-2.605,5.943-3.909,8.445l-1.98-1.485c1.199-2.059,2.893-5.446,4.143-8.443L60.537,2.771
		z M59.52-7.395c-0.911-0.833-2.866-2.084-4.299-2.867l1.174-1.772c1.406,0.704,3.388,1.85,4.377,2.659L59.52-7.395z M68.071,6.788
		c-1.538,1.85-3.962,3.676-6.049,4.82c-0.443-0.444-1.354-1.249-1.902-1.614c2.111-0.965,4.354-2.477,5.656-3.991L68.071,6.788z
		 M77.793,5.51H61.371v-2.06h6.882c-0.182-0.523-0.417-1.122-0.627-1.596l2.32-0.464c0.287,0.596,0.627,1.408,0.887,2.061h6.96V5.51
		z M63.301-6.664h-1.773v-4.483h15.847v4.484h-1.771v7.976H63.301V-6.664z M63.823-9.139v2.031h11.156v-2.031H63.823z M73.361-5.334
		h-7.872v1.563h7.872V-5.334z M73.361-2.101h-7.872v1.642h7.872V-2.101z M72.605,5.875c1.775,1.252,4.172,3.102,5.37,4.354
		l-2.059,1.356c-1.097-1.254-3.415-3.182-5.267-4.535L72.605,5.875z"/>
	<path fill="#FFFFFF" d="M87.378,4.441c-1.277,2.243-3.311,4.509-5.108,5.969c-0.47-0.445-1.461-1.225-2.008-1.614
		c1.825-1.228,3.677-3.182,4.72-5.11L87.378,4.441z M93.322,2.148v6.619c0,1.277-0.263,1.931-1.199,2.295
		c-0.938,0.365-2.374,0.365-4.379,0.365c-0.104-0.679-0.444-1.668-0.78-2.322c1.406,0.08,2.92,0.08,3.335,0.054
		c0.419-0.03,0.548-0.104,0.548-0.445V2.146H80.809v-2.293h22.601v2.293L93.322,2.148L93.322,2.148z M83.546-4.057h-2.397v-5.787
		h10.007c-0.284-0.729-0.676-1.563-1.04-2.215l2.344-0.68c0.549,0.887,1.121,2.009,1.485,2.895h9.229v5.787h-2.502v-3.52H83.545
		L83.546-4.057L83.546-4.057z M85.346-2.754v-2.164h13.422v2.164H85.346z M98.562,3.711c1.719,1.643,3.91,3.936,4.949,5.474
		l-2.186,1.329c-0.965-1.537-3.053-3.936-4.796-5.654L98.562,3.711z"/>
	<path fill="#FFFFFF" d="M114.192-11.617c-0.704,1.825-1.591,3.702-2.579,5.421v17.698h-2.372V-2.467
		c-0.704,0.965-1.433,1.85-2.163,2.631c-0.234-0.599-0.937-1.902-1.332-2.477c2.45-2.423,4.772-6.204,6.181-10.036L114.192-11.617z
		 M119.979,5.458c-1.277,2.268-3.286,4.536-5.059,5.996c-0.443-0.444-1.378-1.174-1.928-1.54c1.828-1.277,3.597-3.257,4.694-5.188
		L119.979,5.458z M130.12,1.105v2.373h-16.787V1.105h3.754v-5.866h-3.129v-2.32h3.129v-5.057h2.374v5.057h4.482v-5.11h2.373v5.11
		h3.543v2.32h-3.543v5.866H130.12z M119.456,1.105h4.485v-5.866h-4.485V1.105z M125.4,4.781c1.697,1.664,3.571,3.91,4.486,5.447
		l-2.031,1.304c-0.861-1.596-2.711-3.964-4.404-5.688L125.4,4.781z"/>
	<path fill="#FFFFFF" d="M136.758-6.924v4.717c0,4.014-0.336,10.01-2.477,13.945c-0.442-0.443-1.537-1.146-2.107-1.381
		c1.953-3.648,2.137-8.891,2.137-12.564v-7.012h10.11c-0.334-0.912-0.755-1.955-1.173-2.813l2.397-0.599
		c0.574,1.094,1.173,2.424,1.512,3.413h8.577v2.295H136.758z M156.048,8.092v2.292h-19.264V8.092h9.983
		c2.503-3.938,4.43-9.174,5.421-13.583l2.557,0.887c-1.227,4.223-3.129,8.785-5.449,12.696H156.048z M140.849,5.64
		c-0.494-2.422-1.743-6.099-2.786-8.915l2.109-0.81c1.147,2.79,2.374,6.361,2.944,8.759L140.849,5.64z M145.569,4.1
		c-0.34-2.396-1.278-6.073-2.112-8.887l2.212-0.573c0.885,2.815,1.85,6.386,2.243,8.783L145.569,4.1z"/>
	<path fill="#FFFFFF" d="M165.502,5.56c0.132,0.549,0.443,1.412,0.676,1.831c-3.985,2.864-4.639,3.387-5.03,3.908l-0.027-0.082
		v0.082c-0.235-0.468-0.81-1.251-1.198-1.616c0.494-0.367,1.248-1.281,1.248-2.582v-4.69h-2.502V0.353h2.502v-3.235h-1.407v-1.878
		c-0.185,0.262-0.365,0.47-0.517,0.704c-0.187-0.47-0.783-1.668-1.176-2.163c1.194-1.538,2.159-3.806,2.683-6.126l2.032,0.574
		c-0.155,0.705-0.392,1.436-0.651,2.138h3.649v2.112H161.3c-0.448,0.937-0.888,1.799-1.413,2.58h5.29v2.061h-1.878v3.23h2.58v2.059
		h-2.58v4.615L165.502,5.56z M169.935,6.709c0.466,0.234,0.936,0.627,1.644,1.047c1.277,0.78,2.863,1.011,4.871,1.011
		c1.643,0,4.305-0.129,6.051-0.336c-0.235,0.652-0.549,1.829-0.573,2.448c-1.33,0.105-3.886,0.184-5.5,0.184
		c-2.19,0-3.779-0.392-5.187-1.227c-0.885-0.573-1.645-1.226-2.112-1.226c-0.702,0-1.719,1.434-2.578,2.789l-1.538-2.239
		c0.887-0.995,1.849-1.797,2.739-2.268v-8.391h-1.745v-2.215h3.937V6.714h-0.005V6.709H169.935z M167.927-6.038
		c-0.313-1.33-1.094-3.363-1.799-4.902l2.01-0.651c0.73,1.537,1.508,3.521,1.878,4.796L167.927-6.038z M173.633-1.319
		c-0.937,0-1.744,0.156-1.98,0.365c-0.129-0.471-0.494-1.539-0.781-2.111c0.443-0.133,0.809-0.783,1.226-1.696
		c0.182-0.442,0.574-1.459,0.994-2.762h-2.479v-2.167h3.105c0.234-0.912,0.469-1.902,0.628-2.813l2.398,0.469
		c-0.186,0.756-0.394,1.563-0.651,2.345h5.76v2.165h-6.489c-0.549,1.511-1.146,2.92-1.746,4.17h2.193v-2.945h2.266v2.945h3.337
		v2.032h-3.337v3.049h4.012v2.112h-4.012v4.014h-2.266V3.839h-5.139V1.728h5.139v-3.049L173.633-1.319L173.633-1.319z"/>
</g>
<g>
	<path fill="#FFFFFF" d="M37.961-8.646c0.818-0.833,1.324-1.977,1.324-3.238c0-2.548-2.066-4.615-4.615-4.615
		c-2.309,0-4.217,1.689-4.563,3.897L14.752,0.284l-15.04-12.641C-0.527-14.684-2.493-16.5-4.884-16.5
		c-2.549,0-4.616,2.067-4.616,4.616c0,1.154,0.426,2.211,1.125,3.018V7.867C-9.074,8.676-9.5,9.73-9.5,10.883
		c0,2.553,2.067,4.617,4.616,4.617c2.551,0,4.618-2.063,4.618-4.617c0-1.239-0.488-2.366-1.283-3.194V-4.373L12.102,7.111
		c0,0,0.764,1.042,2.53,1.042c1.768,0,2.53-1.042,2.53-1.042L31.217-4.617V7.82c-0.726,0.815-1.165,1.891-1.165,3.063
		c0,2.553,2.066,4.617,4.618,4.617c2.549,0,4.615-2.063,4.615-4.617c0-1.259-0.506-2.403-1.324-3.235V-8.646z M-4.884,12.449
		c-0.863,0-1.565-0.699-1.565-1.566c0-0.864,0.702-1.566,1.565-1.566c0.866,0,1.568,0.703,1.568,1.566
		C-3.316,11.75-4.018,12.449-4.884,12.449z M-4.884-10.317c-0.863,0-1.565-0.701-1.565-1.567c0-0.863,0.702-1.566,1.565-1.566
		c0.866,0,1.568,0.703,1.568,1.566C-3.316-11.018-4.018-10.317-4.884-10.317z M16.777,2.726l-2.207,2.51h2.207v1.085h-3.808V5.236
		l2.207-2.51h-2.207v-1.09h3.808V2.726z M34.67,12.449c-0.869,0-1.566-0.699-1.566-1.566c0-0.864,0.697-1.566,1.566-1.566
		c0.863,0,1.564,0.703,1.564,1.566C36.234,11.75,35.534,12.449,34.67,12.449z M34.67-10.317c-0.869,0-1.566-0.701-1.566-1.567
		c0-0.863,0.697-1.566,1.566-1.566c0.863,0,1.564,0.703,1.564,1.566C36.234-11.018,35.534-10.317,34.67-10.317z"/>
</g>
</svg>
