<?xml version="1.0" encoding="utf-8"?>
<!-- Generator: Adobe Illustrator 16.0.3, SVG Export Plug-In . SVG Version: 6.00 Build 0)  -->
<!DOCTYPE svg PUBLIC "-//W3C//DTD SVG 1.1//EN" "http://www.w3.org/Graphics/SVG/1.1/DTD/svg11.dtd">
<svg version="1.1" id="Layer_1" xmlns="http://www.w3.org/2000/svg" xmlns:xlink="http://www.w3.org/1999/xlink" x="0px" y="0px"
	 width="32px" height="32px" viewBox="0 0 32 32" enable-background="new 0 0 32 32" xml:space="preserve">
<circle fill="#F79403" cx="16" cy="16" r="16"/>
<g>
	<path fill="#FFFFFF" d="M20.513,7.57c1.084,0.949,1.627,2.25,1.627,3.876c0,1.327-0.354,2.438-1.031,3.306
		c-0.244,0.3-1.003,1.002-2.276,2.114c-0.515,0.432-0.895,0.922-1.138,1.41c-0.299,0.541-0.434,1.137-0.434,1.789v0.459h-2.9v-0.459
		c0-1.004,0.162-1.871,0.542-2.576c0.352-0.76,1.383-1.87,3.064-3.361l0.46-0.514c0.487-0.624,0.759-1.274,0.759-1.979
		c0-0.949-0.271-1.68-0.786-2.222c-0.542-0.543-1.328-0.813-2.304-0.813c-1.219,0-2.114,0.379-2.656,1.165
		c-0.488,0.65-0.731,1.572-0.731,2.764H9.86c0-1.979,0.569-3.523,1.708-4.661c1.139-1.166,2.71-1.734,4.716-1.734
		C18.02,6.134,19.429,6.594,20.513,7.57z M17.233,22.53c0.379,0.352,0.568,0.814,0.568,1.383s-0.217,1.029-0.596,1.41
		c-0.379,0.354-0.867,0.543-1.409,0.543c-0.543,0-1.03-0.189-1.41-0.57c-0.378-0.379-0.568-0.84-0.568-1.383
		c0-0.568,0.19-1.031,0.568-1.383c0.38-0.379,0.867-0.539,1.41-0.539C16.366,21.991,16.854,22.151,17.233,22.53z"/>
</g>
</svg>
