<?xml version="1.0" encoding="utf-8"?>
<!-- Generator: Adobe Illustrator 16.0.3, SVG Export Plug-In . SVG Version: 6.00 Build 0)  -->
<!DOCTYPE svg PUBLIC "-//W3C//DTD SVG 1.1//EN" "http://www.w3.org/Graphics/SVG/1.1/DTD/svg11.dtd">
<svg version="1.1" id="Layer_1" xmlns="http://www.w3.org/2000/svg" xmlns:xlink="http://www.w3.org/1999/xlink" x="0px" y="0px"
	 width="32px" height="32px" viewBox="0 0 32 32" enable-background="new 0 0 32 32" xml:space="preserve">
<path d="M16,0C7.164,0,0,7.164,0,16s7.164,16,16,16s16-7.164,16-16S24.836,0,16,0z M24,18h-6v6c-0.001,1.104-0.896,1.999-2,2
	c-1.104-0.001-1.999-0.896-2-2v-6H8c-1.104,0-2-0.895-2-2c0-0.552,0.226-1.052,0.586-1.414C6.946,14.225,7.446,14.001,8,14h6V8
	c0.001-0.552,0.225-1.052,0.586-1.414C14.948,6.224,15.448,6.001,16,6c1.104,0,1.999,0.896,2,2v6h6c1.104,0,2,0.895,2,2
	C26,17.104,25.104,18,24,18z"/>
</svg>
