<?xml version="1.0" encoding="utf-8"?>
<!-- Generator: Adobe Illustrator 16.0.3, SVG Export Plug-In . SVG Version: 6.00 Build 0)  -->
<!DOCTYPE svg PUBLIC "-//W3C//DTD SVG 1.1//EN" "http://www.w3.org/Graphics/SVG/1.1/DTD/svg11.dtd">
<svg version="1.1" id="Layer_1" xmlns="http://www.w3.org/2000/svg" xmlns:xlink="http://www.w3.org/1999/xlink" x="0px" y="0px"
	 width="32px" height="32px" viewBox="0 0 32 32" enable-background="new 0 0 32 32" xml:space="preserve">
<path fill="#CC4541" d="M16,0C7.163,0,0,7.163,0,16s7.163,16,16,16s16-7.163,16-16S24.837,0,16,0z"/>
<path fill="#FC605C" d="M16,1C7.715,1,1,7.715,1,16c0,8.284,6.715,15,15,15c8.284,0,15-6.716,15-15C31,7.715,24.284,1,16,1z"/>
<path opacity="0.6" d="M18.263,16l4.868-4.868c0.624-0.625,0.624-1.638-0.001-2.263c-0.623-0.625-1.638-0.625-2.263,0L16,13.737
	l-4.868-4.869c-0.625-0.625-1.638-0.625-2.263,0s-0.625,1.638,0,2.263L13.737,16l-4.868,4.869c-0.625,0.624-0.625,1.638,0,2.263
	C9.181,23.443,9.59,23.6,10,23.6s0.819-0.156,1.132-0.468L16,18.263l4.867,4.868c0.312,0.312,0.723,0.469,1.132,0.469
	s0.819-0.156,1.131-0.469c0.625-0.625,0.625-1.639,0.001-2.263L18.263,16z"/>
</svg>
