<?xml version="1.0" encoding="utf-8"?>
<!-- Generator: Adobe Illustrator 16.0.3, SVG Export Plug-In . SVG Version: 6.00 Build 0)  -->
<!DOCTYPE svg PUBLIC "-//W3C//DTD SVG 1.1//EN" "http://www.w3.org/Graphics/SVG/1.1/DTD/svg11.dtd">
<svg version="1.1" id="Layer_1" xmlns="http://www.w3.org/2000/svg" xmlns:xlink="http://www.w3.org/1999/xlink" x="0px" y="0px"
	 width="32px" height="32px" viewBox="0 0 32 32" enable-background="new 0 0 32 32" xml:space="preserve">
<g>
	<path d="M10,23.6c-0.41,0-0.819-0.156-1.131-0.468c-0.625-0.625-0.625-1.639,0-2.263l11.998-12c0.625-0.625,1.64-0.625,2.263,0
		c0.625,0.625,0.625,1.638,0.001,2.263l-11.999,12C10.819,23.443,10.41,23.6,10,23.6z"/>
	<path d="M21.999,23.6c-0.409,0-0.819-0.156-1.132-0.469l-11.998-12c-0.625-0.625-0.625-1.638,0-2.263s1.638-0.625,2.263,0
		l11.999,12c0.624,0.624,0.624,1.638-0.001,2.263C22.818,23.443,22.408,23.6,21.999,23.6z"/>
	<path fill="#CC4541" d="M16,0C7.163,0,0,7.163,0,16s7.163,16,16,16s16-7.163,16-16S24.837,0,16,0z"/>
	<path fill="#FC605C" d="M16,1C7.715,1,1,7.715,1,16c0,8.284,6.715,15,15,15c8.284,0,15-6.716,15-15C31,7.715,24.284,1,16,1z"/>
</g>
</svg>
