<?xml version="1.0" encoding="utf-8"?>
<!-- Generator: Adobe Illustrator 16.0.3, SVG Export Plug-In . SVG Version: 6.00 Build 0)  -->
<!DOCTYPE svg PUBLIC "-//W3C//DTD SVG 1.1//EN" "http://www.w3.org/Graphics/SVG/1.1/DTD/svg11.dtd">
<svg version="1.1" id="Layer_1" xmlns="http://www.w3.org/2000/svg" xmlns:xlink="http://www.w3.org/1999/xlink" x="0px" y="0px"
	 width="32px" height="32px" viewBox="0 0 32 32" enable-background="new 0 0 32 32" xml:space="preserve">
<g>
	<path d="M16,0C7.163,0,0,7.163,0,16s7.163,16,16,16s16-7.163,16-16S24.837,0,16,0z M16,29C8.82,29,3,23.18,3,16C3,8.82,8.82,3,16,3
		c7.18,0,13,5.82,13,13C29,23.18,23.18,29,16,29z"/>
	<path d="M10,23.6c-0.41,0-0.819-0.156-1.131-0.468c-0.625-0.625-0.625-1.639,0-2.263l11.998-12c0.625-0.625,1.64-0.625,2.263,0
		c0.625,0.625,0.625,1.638,0.001,2.263l-11.999,12C10.819,23.443,10.41,23.6,10,23.6z"/>
	<path d="M21.999,23.6c-0.409,0-0.819-0.156-1.132-0.469l-11.998-12c-0.625-0.625-0.625-1.638,0-2.263s1.638-0.625,2.263,0
		l11.999,12c0.624,0.624,0.624,1.638-0.001,2.263C22.818,23.443,22.408,23.6,21.999,23.6z"/>
</g>
</svg>
