<?xml version="1.0" encoding="utf-8"?>
<!-- Generator: Adobe Illustrator 16.0.3, SVG Export Plug-In . SVG Version: 6.00 Build 0)  -->
<!DOCTYPE svg PUBLIC "-//W3C//DTD SVG 1.1//EN" "http://www.w3.org/Graphics/SVG/1.1/DTD/svg11.dtd">
<svg version="1.1" id="Layer_1" xmlns="http://www.w3.org/2000/svg" xmlns:xlink="http://www.w3.org/1999/xlink" x="0px" y="0px"
	 width="32px" height="32px" viewBox="0 0 32 32" enable-background="new 0 0 32 32" xml:space="preserve">
<g enable-background="new    ">
	<g>
		<path fill="#FFFFFF" d="M26,4h-6c0-2.209-1.791-4-4-4s-4,1.791-4,4H6C4.35,4,3,5.35,3,7v22.001c0,1.65,1.35,3,3,3h20
			c1.65,0,3-1.35,3-3V7C29,5.351,27.65,4,26,4z"/>
	</g>
</g>
<g>
	<path fill="#A9B6C9" d="M23.236,21.195c-0.006,0-0.014,0-0.021,0h-3c-0.395,0-0.757-0.209-0.951-0.551
		c-0.197-0.34-0.197-0.761,0-1.102l1.502-2.598c0.195-0.34,0.561-0.548,0.951-0.548c0,0,0,0,0.001,0c0.394,0,0.757,0.208,0.952,0.55
		l1.405,2.437c0.161,0.192,0.26,0.439,0.26,0.712C24.337,20.703,23.846,21.195,23.236,21.195z"/>
	<path fill="#A9B6C9" d="M15.76,27.1c-3.915,0-7.1-3.185-7.1-7.1s3.185-7.1,7.1-7.1c0.607,0,1.1,0.493,1.1,1.1s-0.49,1.1-1.1,1.1
		c-2.702,0-4.9,2.198-4.9,4.9s2.198,4.9,4.9,4.9c2.702,0,4.9-2.198,4.9-4.9c0-0.607,0.492-1.1,1.1-1.1c0.608,0,1.1,0.492,1.1,1.1
		C22.859,23.915,19.675,27.1,15.76,27.1z"/>
</g>
<g opacity="0.3" enable-background="new    ">
	<g>
		<path d="M26,4h-6c0-2.209-1.791-4-4-4s-4,1.791-4,4H6C4.35,4,3,5.35,3,7v22c0,1.65,1.35,3,3,3h20c1.65,0,3-1.35,3-3V7
			C29,5.351,27.65,4,26,4z M10,5h3V4c0-1.654,1.346-3,3-3c1.654,0,3,1.346,3,3v1h3v3H10V5z M28,29c0,1.104-0.896,2-2,2H6
			c-1.103,0-2-0.896-2-2V7c0-1.103,0.897-2,2-2h3v4h14V5h3c1.104,0,2,0.897,2,2V29z M16,2.5c-0.829,0-1.5,0.671-1.5,1.5
			s0.671,1.5,1.5,1.5c0.828,0,1.5-0.672,1.5-1.5S16.828,2.5,16,2.5z"/>
	</g>
</g>
</svg>
