<?xml version="1.0" encoding="utf-8"?>
<!-- Generator: Adobe Illustrator 16.0.3, SVG Export Plug-In . SVG Version: 6.00 Build 0)  -->
<!DOCTYPE svg PUBLIC "-//W3C//DTD SVG 1.1//EN" "http://www.w3.org/Graphics/SVG/1.1/DTD/svg11.dtd">
<svg version="1.1" id="Layer_1" xmlns="http://www.w3.org/2000/svg" xmlns:xlink="http://www.w3.org/1999/xlink" x="0px" y="0px"
	 width="32px" height="32px" viewBox="0 0 32 32" enable-background="new 0 0 32 32" xml:space="preserve">
<g enable-background="new    ">
	<g>
		<path fill="#FFFFFF" d="M26,4h-6c0-2.209-1.791-4-4-4s-4,1.791-4,4H6C4.35,4,3,5.35,3,7v22.001c0,1.65,1.35,3,3,3h20
			c1.65,0,3-1.35,3-3V7C29,5.351,27.65,4,26,4z"/>
	</g>
</g>
<path fill="#A9B6C9" d="M14,24.75c-0.32,0-0.641-0.122-0.884-0.366l-5-5c-0.488-0.487-0.488-1.278,0-1.768
	c0.487-0.489,1.278-0.488,1.768,0L14,21.73l8.116-8.114c0.487-0.488,1.278-0.488,1.768,0c0.49,0.487,0.488,1.278,0,1.768l-9,9
	C14.641,24.628,14.32,24.75,14,24.75z"/>
<g opacity="0.3" enable-background="new    ">
	<g>
		<path d="M26,4h-6c0-2.209-1.791-4-4-4s-4,1.791-4,4H6C4.35,4,3,5.35,3,7v22c0,1.65,1.35,3,3,3h20c1.65,0,3-1.35,3-3V7
			C29,5.351,27.65,4,26,4z M10,5h3V4c0-1.654,1.346-3,3-3c1.654,0,3,1.346,3,3v1h3v3H10V5z M28,29c0,1.104-0.896,2-2,2H6
			c-1.104,0-2-0.896-2-2V7c0-1.103,0.896-2,2-2h3v4h14V5h3c1.104,0,2,0.897,2,2V29z M16,2.5c-0.829,0-1.5,0.671-1.5,1.5
			s0.671,1.5,1.5,1.5c0.828,0,1.5-0.672,1.5-1.5S16.828,2.5,16,2.5z"/>
	</g>
</g>
</svg>
