<?xml version="1.0" encoding="utf-8"?>
<!-- Generator: Adobe Illustrator 16.0.3, SVG Export Plug-In . SVG Version: 6.00 Build 0)  -->
<!DOCTYPE svg PUBLIC "-//W3C//DTD SVG 1.1//EN" "http://www.w3.org/Graphics/SVG/1.1/DTD/svg11.dtd">
<svg version="1.1" id="Layer_1" xmlns="http://www.w3.org/2000/svg" xmlns:xlink="http://www.w3.org/1999/xlink" x="0px" y="0px"
	 width="32px" height="32px" viewBox="0 0 32 32" enable-background="new 0 0 32 32" xml:space="preserve">
<g>
	<path fill="#2376E5" d="M20.466,2.973l-1.925-1.924c-1.396-1.398-3.683-1.398-5.08,0l-1.925,1.924H8.813
		c-1.976,0-3.592,1.617-3.592,3.593v2.721l-1.925,1.925c-1.397,1.397-1.397,3.683,0,5.08l1.925,1.924v2.722
		c0,1.978,1.616,3.594,3.592,3.594h1.798V32L16,28.406L21.391,32v-7.471h1.797c1.975,0,3.594-1.615,3.594-3.592v-2.723l1.925-1.924
		c1.396-1.398,1.396-3.684,0-5.08l-1.927-1.924V6.566c0-1.977-1.618-3.593-3.592-3.593H20.466z M16,22.734
		c-4.96,0-8.983-4.021-8.983-8.982S11.04,4.769,16,4.769c4.961,0,8.982,4.022,8.982,8.983S20.961,22.734,16,22.734z M21.391,13.753
		c0,2.976-2.414,5.392-5.391,5.392c-2.978,0-5.39-2.416-5.39-5.392c0-2.977,2.413-5.39,5.39-5.39
		C18.975,8.363,21.391,10.776,21.391,13.753z"/>
</g>
</svg>
