<?xml version="1.0" encoding="utf-8"?>
<!-- Generator: Adobe Illustrator 16.0.3, SVG Export Plug-In . SVG Version: 6.00 Build 0)  -->
<!DOCTYPE svg PUBLIC "-//W3C//DTD SVG 1.1//EN" "http://www.w3.org/Graphics/SVG/1.1/DTD/svg11.dtd">
<svg version="1.1" id="Layer_1" xmlns="http://www.w3.org/2000/svg" xmlns:xlink="http://www.w3.org/1999/xlink" x="0px" y="0px"
	 width="32px" height="32px" viewBox="0 0 32 32" enable-background="new 0 0 32 32" xml:space="preserve">
<g enable-background="new    ">
	<g>
		<path fill="#FFFFFF" d="M26,4h-6c0-2.209-1.791-4-4-4s-4,1.791-4,4H6C4.35,4,3,5.35,3,7v22.001c0,1.65,1.35,3,3,3h20
			c1.65,0,3-1.35,3-3V7C29,5.351,27.65,4,26,4z"/>
	</g>
</g>
<g>
	<polygon fill="#A9B6C9" points="9.5,24.502 9.5,27.5 12.498,27.5 19.496,20.475 16.5,17.5 	"/>
	<path fill="#A9B6C9" d="M21.596,12.409l-1.191,1.19l-1.146-1.146c-0.139-0.143-0.327-0.221-0.528-0.221
		c-0.194,0-0.392,0.078-0.526,0.221l-5.451,5.451l1.061,1.062l4.92-4.922l0.615,0.616l-1.85,1.844l3,2.996l4.098-4.098
		L21.596,12.409z"/>
</g>
<g opacity="0.3" enable-background="new    ">
	<g>
		<path d="M26,4h-6c0-2.209-1.791-4-4-4s-4,1.791-4,4H6C4.35,4,3,5.35,3,7v22c0,1.65,1.35,3,3,3h20c1.65,0,3-1.35,3-3V7
			C29,5.351,27.65,4,26,4z M10,5h3V4c0-1.654,1.346-3,3-3c1.654,0,3,1.346,3,3v1h3v3H10V5z M28,29c0,1.104-0.896,2-2,2H6
			c-1.103,0-2-0.896-2-2V7c0-1.103,0.897-2,2-2h3v4h14V5h3c1.104,0,2,0.897,2,2V29z M16,2.5c-0.829,0-1.5,0.671-1.5,1.5
			s0.671,1.5,1.5,1.5c0.828,0,1.5-0.672,1.5-1.5S16.828,2.5,16,2.5z"/>
	</g>
</g>
</svg>
