<?xml version="1.0" encoding="utf-8"?>
<!-- Generator: Adobe Illustrator 16.0.3, SVG Export Plug-In . SVG Version: 6.00 Build 0)  -->
<!DOCTYPE svg PUBLIC "-//W3C//DTD SVG 1.1//EN" "http://www.w3.org/Graphics/SVG/1.1/DTD/svg11.dtd">
<svg version="1.1" id="Layer_1" xmlns="http://www.w3.org/2000/svg" xmlns:xlink="http://www.w3.org/1999/xlink" x="0px" y="0px"
	 width="32px" height="32px" viewBox="0 0 32 32" enable-background="new 0 0 32 32" xml:space="preserve">
<g enable-background="new    ">
	<g>
		<path fill="#FFFFFF" d="M26,4h-6c0-2.209-1.791-4-4-4s-4,1.791-4,4H6C4.35,4,3,5.35,3,7v22.001c0,1.65,1.35,3,3,3h20
			c1.65,0,3-1.35,3-3V7C29,5.351,27.65,4,26,4z"/>
	</g>
</g>
<g>
	<g>
		<path fill="#A9B6C9" d="M8.438,16.124C7.091,16.124,6,17.215,6,18.562C6,19.908,7.091,21,8.438,21s2.438-1.092,2.438-2.438
			C10.876,17.215,9.785,16.124,8.438,16.124z M16,16.124c-1.347,0-2.438,1.091-2.438,2.438C13.562,19.908,14.653,21,16,21
			c1.348,0,2.438-1.092,2.438-2.438C18.438,17.215,17.348,16.124,16,16.124z M23.562,16.124c-1.35,0-2.438,1.091-2.438,2.438
			c0,1.346,1.091,2.438,2.438,2.438C24.908,21,26,19.908,26,18.562C26,17.215,24.908,16.124,23.562,16.124z"/>
	</g>
</g>
<g opacity="0.3" enable-background="new    ">
	<g>
		<path d="M26,4h-6c0-2.209-1.791-4-4-4s-4,1.791-4,4H6C4.35,4,3,5.35,3,7v22c0,1.65,1.35,3,3,3h20c1.65,0,3-1.35,3-3V7
			C29,5.351,27.65,4,26,4z M10,5h3V4c0-1.654,1.346-3,3-3c1.654,0,3,1.346,3,3v1h3v3H10V5z M28,29c0,1.104-0.896,2-2,2H6
			c-1.103,0-2-0.896-2-2V7c0-1.103,0.897-2,2-2h3v4h14V5h3c1.104,0,2,0.897,2,2V29z M16,2.5c-0.829,0-1.5,0.671-1.5,1.5
			s0.671,1.5,1.5,1.5c0.828,0,1.5-0.672,1.5-1.5S16.828,2.5,16,2.5z"/>
	</g>
</g>
</svg>
