<?xml version="1.0" encoding="utf-8"?>
<!-- Generator: Adobe Illustrator 16.0.3, SVG Export Plug-In . SVG Version: 6.00 Build 0)  -->
<!DOCTYPE svg PUBLIC "-//W3C//DTD SVG 1.1//EN" "http://www.w3.org/Graphics/SVG/1.1/DTD/svg11.dtd">
<svg version="1.1" id="Layer_1" xmlns="http://www.w3.org/2000/svg" xmlns:xlink="http://www.w3.org/1999/xlink" x="0px" y="0px"
	 width="32px" height="32px" viewBox="0 0 32 32" enable-background="new 0 0 32 32" xml:space="preserve">
<g enable-background="new    ">
	<g>
		<path fill="#FFFFFF" d="M26,4h-6c0-2.209-1.791-4-4-4s-4,1.791-4,4H6C4.35,4,3,5.35,3,7v22.001c0,1.65,1.35,3,3,3h20
			c1.65,0,3-1.35,3-3V7C29,5.351,27.65,4,26,4z"/>
	</g>
</g>
<g>
	<g>
		<path fill="#A9B6C9" d="M20.588,14.038c-0.992-1.311-2.574-1.979-4.235-1.779c-3.685,0.438-4.966,3.654-5.019,3.791
			c-0.249,0.646,0.072,1.368,0.716,1.616c0.644,0.251,1.368-0.072,1.616-0.716c0.008-0.021,0.776-1.947,2.98-2.209
			c1.104-0.133,1.73,0.52,1.949,0.806c0.37,0.492,0.493,1.096,0.312,1.538c-0.281,0.681-0.849,1.013-1.505,1.396
			c-0.908,0.531-2.152,1.262-2.152,3.021v1c0,0.688,0.56,1.25,1.25,1.25c0.689,0,1.25-0.562,1.25-1.25v-1
			c0-0.253,0.039-0.349,0.915-0.86c0.823-0.48,1.95-1.143,2.553-2.6C21.741,16.775,21.5,15.241,20.588,14.038z M16.5,25
			c-0.966,0-1.75,0.783-1.75,1.75s0.784,1.75,1.75,1.75c0.967,0,1.75-0.783,1.75-1.75S17.467,25,16.5,25z"/>
	</g>
</g>
<g opacity="0.3" enable-background="new    ">
	<g>
		<path d="M26,4h-6c0-2.209-1.791-4-4-4s-4,1.791-4,4H6C4.35,4,3,5.35,3,7v22c0,1.65,1.35,3,3,3h20c1.65,0,3-1.35,3-3V7
			C29,5.351,27.65,4,26,4z M10,5h3V4c0-1.654,1.346-3,3-3c1.654,0,3,1.346,3,3v1h3v3H10V5z M28,29c0,1.104-0.896,2-2,2H6
			c-1.103,0-2-0.896-2-2V7c0-1.103,0.897-2,2-2h3v4h14V5h3c1.104,0,2,0.897,2,2V29z M16,2.5c-0.829,0-1.5,0.671-1.5,1.5
			s0.671,1.5,1.5,1.5c0.828,0,1.5-0.672,1.5-1.5S16.828,2.5,16,2.5z"/>
	</g>
</g>
</svg>
