<?xml version="1.0" encoding="utf-8"?>
<!-- Generator: Adobe Illustrator 16.0.3, SVG Export Plug-In . SVG Version: 6.00 Build 0)  -->
<!DOCTYPE svg PUBLIC "-//W3C//DTD SVG 1.1//EN" "http://www.w3.org/Graphics/SVG/1.1/DTD/svg11.dtd">
<svg version="1.1" id="Layer_1" xmlns="http://www.w3.org/2000/svg" xmlns:xlink="http://www.w3.org/1999/xlink" x="0px" y="0px"
	 width="32px" height="32px" viewBox="0 0 32 32" enable-background="new 0 0 32 32" xml:space="preserve">
<g enable-background="new    ">
	<g>
		<path fill="#FFFFFF" d="M26,4h-6c0-2.209-1.791-4-4-4s-4,1.791-4,4H6C4.35,4,3,5.35,3,7v22.001c0,1.65,1.35,3,3,3h20
			c1.65,0,3-1.35,3-3V7C29,5.351,27.65,4,26,4z"/>
	</g>
</g>
<path fill="#A9B6C9" d="M20.5,22.4h-2.9V20.6h2.9c0.607,0,1.1-0.492,1.1-1.1s-0.492-1.1-1.1-1.1h-1.945l2.86-4.292
	c0.337-0.506,0.2-1.188-0.306-1.525c-0.504-0.337-1.188-0.201-1.524,0.305L16.5,17.518l-3.085-4.626
	c-0.336-0.505-1.019-0.641-1.525-0.305c-0.505,0.337-0.642,1.02-0.305,1.525l2.86,4.292H12.5c-0.607,0-1.1,0.492-1.1,1.1
	s0.493,1.1,1.1,1.1h2.9V22.4h-2.9c-0.607,0-1.1,0.492-1.1,1.1s0.493,1.1,1.1,1.1h2.9v1.9c0,0.607,0.493,1.1,1.1,1.1
	c0.607,0,1.1-0.492,1.1-1.1v-1.9h2.9c0.607,0,1.1-0.492,1.1-1.1S21.107,22.4,20.5,22.4z"/>
<g opacity="0.3" enable-background="new    ">
	<g>
		<path d="M26,4h-6c0-2.209-1.791-4-4-4s-4,1.791-4,4H6C4.35,4,3,5.35,3,7v22c0,1.65,1.35,3,3,3h20c1.65,0,3-1.35,3-3V7
			C29,5.351,27.65,4,26,4z M10,5h3V4c0-1.654,1.346-3,3-3c1.654,0,3,1.346,3,3v1h3v3H10V5z M28,29c0,1.104-0.896,2-2,2H6
			c-1.103,0-2-0.896-2-2V7c0-1.103,0.897-2,2-2h3v4h14V5h3c1.104,0,2,0.897,2,2V29z M16,2.5c-0.829,0-1.5,0.671-1.5,1.5
			s0.671,1.5,1.5,1.5c0.828,0,1.5-0.672,1.5-1.5S16.828,2.5,16,2.5z"/>
	</g>
</g>
</svg>
