<?xml version="1.0" encoding="utf-8"?>
<!-- Generator: Adobe Illustrator 16.0.3, SVG Export Plug-In . SVG Version: 6.00 Build 0)  -->
<!DOCTYPE svg PUBLIC "-//W3C//DTD SVG 1.1//EN" "http://www.w3.org/Graphics/SVG/1.1/DTD/svg11.dtd">
<svg version="1.1" id="Layer_1" xmlns="http://www.w3.org/2000/svg" xmlns:xlink="http://www.w3.org/1999/xlink" x="0px" y="0px"
	 width="32px" height="32px" viewBox="0 0 32 32" enable-background="new 0 0 32 32" xml:space="preserve">
<path fill="#FFFFFF" enable-background="new    " d="M16,0L2,2.001c0,0,0,16.09,0,18.999s10.121,11,14,11s14-8.091,14-11
	s0-18.999,0-18.999L16,0z"/>
<path opacity="0.3" enable-background="new    " d="M16,0L2,2.001c0,0,0,16.09,0,18.999s10.121,11,14,11s14-8.091,14-11
	s0-18.999,0-18.999L16,0z M29,21c0,2.17-9.52,10-13,10c-3.48,0-13-7.83-13-10V2.868L16,1.01l13,1.858V21z"/>
<path fill="#A9B6C9" d="M24.318,14.389l-1.404-2.438c-0.196-0.34-0.561-0.55-0.952-0.55c-0.001,0-0.001,0-0.001,0
	c-0.393,0-0.756,0.209-0.952,0.549l-1.502,2.597c-0.196,0.34-0.196,0.76-0.001,1.101c0.196,0.34,0.561,0.55,0.953,0.55h0.277
	c-0.538,2.122-2.448,3.704-4.735,3.704c-2.702,0-4.9-2.198-4.9-4.9s2.198-4.9,4.9-4.9c0.606,0,1.101-0.493,1.101-1.1
	s-0.492-1.1-1.101-1.1C12.085,7.901,8.9,11.086,8.9,15.001s3.185,7.101,7.1,7.101c3.507,0,6.42-2.559,6.99-5.901h0.468
	c0.008,0,0.017,0,0.021,0c0.607,0,1.103-0.493,1.103-1.1C24.579,14.827,24.48,14.58,24.318,14.389z"/>
</svg>
