<?xml version="1.0" encoding="utf-8"?>
<!-- Generator: Adobe Illustrator 16.0.3, SVG Export Plug-In . SVG Version: 6.00 Build 0)  -->
<!DOCTYPE svg PUBLIC "-//W3C//DTD SVG 1.1//EN" "http://www.w3.org/Graphics/SVG/1.1/DTD/svg11.dtd">
<svg version="1.1" id="Layer_1" xmlns="http://www.w3.org/2000/svg" xmlns:xlink="http://www.w3.org/1999/xlink" x="0px" y="0px"
	 width="32px" height="32px" viewBox="0 0 32 32" enable-background="new 0 0 32 32" xml:space="preserve">
<path fill="#FFFFFF" enable-background="new    " d="M16,0L2,2.001c0,0,0,16.09,0,18.999s10.121,11,14,11s14-8.091,14-11
	s0-18.999,0-18.999L16,0z"/>
<g>
	<path fill="#A9B6C9" d="M14,20.751c-0.32,0-0.64-0.122-0.884-0.366l-5-5c-0.488-0.488-0.488-1.279,0-1.768
		c0.488-0.489,1.279-0.488,1.768,0L14,17.732l8.116-8.115c0.487-0.488,1.278-0.488,1.768,0c0.489,0.488,0.488,1.279,0,1.768l-9,9
		C14.64,20.629,14.32,20.751,14,20.751z"/>
</g>
<path opacity="0.3" enable-background="new    " d="M16,0L2,2.001c0,0,0,16.09,0,18.999s10.121,11,14,11s14-8.091,14-11
	s0-18.999,0-18.999L16,0z M29,21c0,2.17-9.52,10-13,10c-3.48,0-13-7.83-13-10V2.868L16,1.01l13,1.858V21z"/>
</svg>
