<?xml version="1.0" encoding="utf-8"?>
<!-- Generator: Adobe Illustrator 16.0.3, SVG Export Plug-In . SVG Version: 6.00 Build 0)  -->
<!DOCTYPE svg PUBLIC "-//W3C//DTD SVG 1.1//EN" "http://www.w3.org/Graphics/SVG/1.1/DTD/svg11.dtd">
<svg version="1.1" id="Layer_1" xmlns="http://www.w3.org/2000/svg" xmlns:xlink="http://www.w3.org/1999/xlink" x="0px" y="0px"
	 width="32px" height="32px" viewBox="0 0 32 32" enable-background="new 0 0 32 32" xml:space="preserve">
<path fill="#FFFFFF" enable-background="new    " d="M16,0L2,2.001c0,0,0,16.09,0,18.999s10.121,11,14,11s14-8.091,14-11
	s0-18.999,0-18.999L16,0z"/>
<g>
	<g>
		<circle fill="#A9B6C9" cx="16.074" cy="15" r="2.438"/>
		<circle fill="#A9B6C9" cx="8.512" cy="15" r="2.438"/>
		<circle fill="#A9B6C9" cx="23.637" cy="15" r="2.438"/>
	</g>
</g>
<path opacity="0.3" enable-background="new    " d="M16,0L2,2.001c0,0,0,16.09,0,18.999s10.121,11,14,11s14-8.091,14-11
	s0-18.999,0-18.999L16,0z M29,21c0,2.17-9.52,10-13,10c-3.48,0-13-7.83-13-10V2.868L16,1.01l13,1.858V21z"/>
</svg>
