<?xml version="1.0" encoding="utf-8"?>
<!-- Generator: Adobe Illustrator 16.0.3, SVG Export Plug-In . SVG Version: 6.00 Build 0)  -->
<!DOCTYPE svg PUBLIC "-//W3C//DTD SVG 1.1//EN" "http://www.w3.org/Graphics/SVG/1.1/DTD/svg11.dtd">
<svg version="1.1" id="Layer_1" xmlns="http://www.w3.org/2000/svg" xmlns:xlink="http://www.w3.org/1999/xlink" x="0px" y="0px"
	 width="32px" height="32px" viewBox="0 0 32 32" enable-background="new 0 0 32 32" xml:space="preserve">
<g id="auuFTt_1_">
	<g>
		<path fill="#2376E5" d="M11.11,31.379c-2.458-0.199-4.974-0.141-7.419-0.773c-1.058-0.273-2.087-0.608-2.914-1.371
			c-0.493-0.452-0.703-1.021-0.762-1.691c-0.123-1.377,0.49-2.385,1.476-3.24c1.042-0.904,2.224-1.593,3.46-2.188
			c0.616-0.299,1.25-0.557,1.881-0.821c0.895-0.376,1.397-1.138,1.418-2.112c0.013-0.634-0.21-1.131-0.611-1.634
			c-1.95-2.445-2.92-5.208-2.36-8.347c0.415-2.324,1.775-3.943,4.089-4.547c2.386-0.623,4.562-0.135,6.279,1.734
			c1.142,1.245,1.533,2.793,1.516,4.451c-0.021,2.147-0.771,4.059-1.951,5.821c-0.229,0.342-0.461,0.699-0.764,0.971
			c-0.706,0.628-0.68,2.576,0.019,3.285c0.126,0.127,0.305,0.223,0.477,0.284c1.835,0.669,3.613,1.454,5.185,2.64
			c0.689,0.521,1.391,1.077,1.712,1.899c0.652,1.657,0.394,3.265-1.327,4.134c-1.316,0.666-2.734,0.961-4.18,1.13
			c-1.054,0.124-2.117,0.174-3.176,0.25C12.486,31.299,11.815,31.335,11.11,31.379z"/>
		<path fill="#2376E5" d="M16.557,19.13c0.523-0.835,1.086-1.612,1.531-2.453c1.482-2.79,2.041-5.718,1.143-8.82
			c-0.42-1.449-1.189-2.694-2.32-3.699c-0.229-0.204-0.25-0.364-0.12-0.627c0.798-1.615,2.092-2.575,3.858-2.829
			c2.186-0.314,4.058,0.27,5.377,2.144c0.808,1.144,1.065,2.467,1.035,3.834c-0.057,2.464-0.83,4.674-2.455,6.561
			c-0.342,0.396-0.465,1.46-0.174,1.879c0.143,0.205,0.396,0.359,0.635,0.466c1.115,0.505,2.265,0.943,3.359,1.491
			c1.049,0.521,2.001,1.192,2.799,2.077c0.777,0.867,0.881,1.885,0.697,2.953c-0.134,0.781-0.699,1.261-1.355,1.634
			c-1.078,0.61-2.271,0.856-3.474,1.044c-0.804,0.123-1.616,0.178-2.426,0.273c-0.267,0.031-0.416-0.029-0.541-0.3
			c-0.701-1.511-1.905-2.557-3.263-3.454c-1.215-0.805-2.514-1.449-3.865-1.986C16.848,19.258,16.695,19.189,16.557,19.13z"/>
	</g>
</g>
</svg>
