<?xml version="1.0" encoding="utf-8"?>
<!-- Generator: Adobe Illustrator 16.0.3, SVG Export Plug-In . SVG Version: 6.00 Build 0)  -->
<!DOCTYPE svg PUBLIC "-//W3C//DTD SVG 1.1//EN" "http://www.w3.org/Graphics/SVG/1.1/DTD/svg11.dtd">
<svg version="1.1" id="Layer_1" xmlns="http://www.w3.org/2000/svg" xmlns:xlink="http://www.w3.org/1999/xlink" x="0px" y="0px"
	 width="32px" height="32px" viewBox="0 0 32 32" enable-background="new 0 0 32 32" xml:space="preserve">
<g id="auuFTt_1_">
	<g>
		<path fill="#A9ADB3" d="M11.11,31.379c-2.458-0.199-4.974-0.141-7.419-0.773c-1.058-0.274-2.087-0.609-2.914-1.371
			c-0.493-0.453-0.703-1.021-0.762-1.692c-0.123-1.377,0.49-2.385,1.476-3.24c1.042-0.905,2.224-1.593,3.46-2.188
			c0.616-0.299,1.25-0.557,1.881-0.821c0.895-0.376,1.397-1.138,1.418-2.112c0.013-0.634-0.21-1.131-0.611-1.634
			c-1.95-2.445-2.92-5.208-2.36-8.347c0.415-2.324,1.775-3.943,4.089-4.547c2.386-0.623,4.562-0.135,6.279,1.734
			c1.142,1.245,1.533,2.793,1.516,4.451c-0.021,2.147-0.771,4.059-1.951,5.821c-0.229,0.342-0.461,0.7-0.764,0.971
			c-0.706,0.628-0.68,2.576,0.019,3.285c0.126,0.127,0.305,0.222,0.477,0.284c1.836,0.669,3.613,1.455,5.185,2.64
			c0.69,0.521,1.39,1.077,1.712,1.899c0.652,1.658,0.393,3.265-1.328,4.134c-1.316,0.666-2.734,0.961-4.179,1.13
			c-1.054,0.124-2.117,0.174-3.176,0.25C12.486,31.299,11.815,31.335,11.11,31.379z"/>
		<path fill="#A9ADB3" d="M16.556,19.13c0.524-0.835,1.086-1.612,1.532-2.453c1.483-2.79,2.041-5.718,1.142-8.82
			c-0.42-1.449-1.189-2.694-2.32-3.699c-0.229-0.204-0.25-0.364-0.12-0.627c0.798-1.615,2.092-2.575,3.858-2.829
			c2.186-0.314,4.058,0.27,5.377,2.144c0.808,1.144,1.066,2.467,1.035,3.834c-0.056,2.464-0.83,4.674-2.455,6.561
			c-0.342,0.396-0.465,1.46-0.174,1.879c0.143,0.205,0.397,0.359,0.635,0.466c1.115,0.505,2.265,0.944,3.36,1.491
			c1.048,0.521,2.001,1.193,2.798,2.078c0.778,0.867,0.881,1.884,0.698,2.953c-0.134,0.781-0.7,1.26-1.356,1.633
			c-1.077,0.611-2.27,0.857-3.473,1.044c-0.804,0.123-1.617,0.178-2.426,0.274c-0.266,0.031-0.416-0.029-0.541-0.3
			c-0.701-1.511-1.906-2.557-3.263-3.454c-1.214-0.805-2.513-1.449-3.865-1.986C16.847,19.258,16.696,19.189,16.556,19.13z"/>
	</g>
</g>
</svg>
