<?xml version="1.0" encoding="utf-8"?>
<!-- Generator: Adobe Illustrator 16.0.3, SVG Export Plug-In . SVG Version: 6.00 Build 0)  -->
<!DOCTYPE svg PUBLIC "-//W3C//DTD SVG 1.1//EN" "http://www.w3.org/Graphics/SVG/1.1/DTD/svg11.dtd">
<svg version="1.1" id="Layer_1" xmlns="http://www.w3.org/2000/svg" xmlns:xlink="http://www.w3.org/1999/xlink" x="0px" y="0px"
	 width="32px" height="32px" viewBox="0 0 32 32" enable-background="new 0 0 32 32" xml:space="preserve">
<g>
	<g>
		<path fill="#217346" d="M19,4V0L1,5v22l18,5v-5h12V4H19z M30,26H19v-2h3v-2h-3v-1h3v-2h-3v-1h3v-2h-3v-1h3v-2h-3v-1h3v-2h-3V9h3V7
			h-3V5h11V26z"/>
		<rect x="23" y="7" fill="#217346" width="5" height="2"/>
		<rect x="23" y="10" fill="#217346" width="5" height="2"/>
		<rect x="23" y="13" fill="#217346" width="5" height="2"/>
		<rect x="23" y="16" fill="#217346" width="5" height="2"/>
		<rect x="23" y="19" fill="#217346" width="5" height="2"/>
		<rect x="23" y="22" fill="#217346" width="5" height="2"/>
	</g>
	<g>
		<path fill="#FFFFFF" d="M11.122,22.43l-0.898-2.247c-0.366-0.859-0.598-1.493-0.873-2.199H9.321
			c-0.216,0.694-0.474,1.31-0.792,2.129l-0.825,2.082l-2.385-0.165l2.745-5.8l-2.603-5.77l2.474-0.22l0.844,2.18
			c0.291,0.733,0.507,1.326,0.74,2.012l0.03-0.001c0.254-0.798,0.459-1.362,0.732-2.1l0.932-2.383l2.867-0.255l-3.223,6.435
			l3.082,6.497L11.122,22.43z"/>
	</g>
</g>
</svg>
