<?xml version="1.0" encoding="utf-8"?>
<!-- Generator: Adobe Illustrator 16.0.3, SVG Export Plug-In . SVG Version: 6.00 Build 0)  -->
<!DOCTYPE svg PUBLIC "-//W3C//DTD SVG 1.1//EN" "http://www.w3.org/Graphics/SVG/1.1/DTD/svg11.dtd">
<svg version="1.1" id="Layer_1" xmlns="http://www.w3.org/2000/svg" xmlns:xlink="http://www.w3.org/1999/xlink" x="0px" y="0px"
	 width="32px" height="32px" viewBox="0 0 32 32" enable-background="new 0 0 32 32" xml:space="preserve">
<g>
	<g>
		<linearGradient id="SVGID_1_" gradientUnits="userSpaceOnUse" x1="4.772" y1="5.2642" x2="26.5153" y2="27.0075">
			<stop  offset="0" style="stop-color:#494A4D"/>
			<stop  offset="0.9995" style="stop-color:#6A6B70"/>
		</linearGradient>
		<path fill="url(#SVGID_1_)" d="M16,19c1.381,0,2.5-1.119,2.5-2.5v-14C18.5,1.119,17.381,0,16,0s-2.5,1.119-2.5,2.5v14
			C13.5,17.881,14.619,19,16,19z M24.328,3.426c-1.159-0.742-2.709-0.403-3.452,0.762c-0.743,1.164-0.401,2.71,0.763,3.453
			C24.684,9.583,26.5,12.896,26.5,16.5C26.5,22.29,21.79,27,16,27S5.5,22.29,5.5,16.5c0-3.388,1.65-6.586,4.414-8.557
			c1.124-0.802,1.385-2.363,0.584-3.487C9.697,3.331,8.135,3.072,7.011,3.872C2.934,6.779,0.5,11.5,0.5,16.5
			C0.5,25.047,7.453,32,16,32s15.5-6.953,15.5-15.5C31.5,11.18,28.818,6.292,24.328,3.426z"/>
	</g>
</g>
</svg>
