<?xml version="1.0" encoding="utf-8"?>
<!-- Generator: Adobe Illustrator 16.0.3, SVG Export Plug-In . SVG Version: 6.00 Build 0)  -->
<!DOCTYPE svg PUBLIC "-//W3C//DTD SVG 1.1//EN" "http://www.w3.org/Graphics/SVG/1.1/DTD/svg11.dtd">
<svg version="1.1" id="Layer_1" xmlns="http://www.w3.org/2000/svg" xmlns:xlink="http://www.w3.org/1999/xlink" x="0px" y="0px"
	 width="32px" height="32px" viewBox="0 0 32 32" enable-background="new 0 0 32 32" xml:space="preserve">
<path fill="#2376E5" d="M16,32C7.453,32,0.5,25.047,0.5,16.5c0-5,2.434-9.721,6.511-12.628c1.124-0.8,2.686-0.541,3.487,0.584
	c0.801,1.124,0.54,2.685-0.584,3.487C7.15,9.914,5.5,13.112,5.5,16.5C5.5,22.29,10.21,27,16,27s10.5-4.71,10.5-10.5
	c0-3.604-1.816-6.917-4.861-8.859c-1.164-0.743-1.506-2.289-0.763-3.453c0.743-1.165,2.293-1.504,3.452-0.762
	C28.818,6.292,31.5,11.18,31.5,16.5C31.5,25.047,24.547,32,16,32z"/>
<path fill="#2376E5" d="M16,19c-1.381,0-2.5-1.119-2.5-2.5v-14C13.5,1.119,14.619,0,16,0s2.5,1.119,2.5,2.5v14
	C18.5,17.881,17.381,19,16,19z"/>
</svg>
