<?xml version="1.0" encoding="utf-8"?>
<!-- Generator: Adobe Illustrator 16.0.3, SVG Export Plug-In . SVG Version: 6.00 Build 0)  -->
<!DOCTYPE svg PUBLIC "-//W3C//DTD SVG 1.1//EN" "http://www.w3.org/Graphics/SVG/1.1/DTD/svg11.dtd">
<svg version="1.1" id="Layer_1" xmlns="http://www.w3.org/2000/svg" xmlns:xlink="http://www.w3.org/1999/xlink" x="0px" y="0px"
	 width="32px" height="32px" viewBox="0 0 32 32" enable-background="new 0 0 32 32" xml:space="preserve">
<path fill="#A9ADB3" d="M16,0.5l-15,15c0,0,0,2,2,2c0.377,0,1.468,0,3,0c0,3.502,0,10.514,0,12c0,2,2,2,2,2h16c0,0,2,0,2-2
	c0-1.486,0-8.498,0-12c1.532,0,2.622,0,3,0c2,0,2-2,2-2L16,0.5z M16,25.5c-2.209,0-4-1.791-4-4s1.791-4,4-4s4,1.791,4,4
	S18.209,25.5,16,25.5z"/>
</svg>
