<?xml version="1.0" encoding="utf-8"?>
<!-- Generator: Adobe Illustrator 16.0.3, SVG Export Plug-In . SVG Version: 6.00 Build 0)  -->
<!DOCTYPE svg PUBLIC "-//W3C//DTD SVG 1.1//EN" "http://www.w3.org/Graphics/SVG/1.1/DTD/svg11.dtd">
<svg version="1.1" id="Layer_1" xmlns="http://www.w3.org/2000/svg" xmlns:xlink="http://www.w3.org/1999/xlink" x="0px" y="0px"
	 width="32px" height="32px" viewBox="0 0 32 32" enable-background="new 0 0 32 32" xml:space="preserve">
<path fill="#F26C49" d="M16.001,0C7.164,0,0,7.164,0,16c0,8.838,7.164,16,16.001,16C24.837,32,32,24.838,32,16
	C32,7.165,24.837,0,16.001,0z M18,25h-4V15h4V25z M16.001,12.573c-1.577,0-2.856-1.279-2.856-2.857c0-1.578,1.279-2.857,2.856-2.857
	c1.578,0,2.856,1.279,2.856,2.857C18.857,11.294,17.579,12.573,16.001,12.573z"/>
</svg>
