<?xml version="1.0" encoding="utf-8"?>
<!-- Generator: Adobe Illustrator 16.0.3, SVG Export Plug-In . SVG Version: 6.00 Build 0)  -->
<!DOCTYPE svg PUBLIC "-//W3C//DTD SVG 1.1//EN" "http://www.w3.org/Graphics/SVG/1.1/DTD/svg11.dtd">
<svg version="1.1" id="Layer_1" xmlns="http://www.w3.org/2000/svg" xmlns:xlink="http://www.w3.org/1999/xlink" x="0px" y="0px"
	 width="32px" height="32px" viewBox="0 0 32 32" enable-background="new 0 0 32 32" xml:space="preserve">
<polygon points="0,32 0,25 13.993,11 21,18 18.021,21 13,21 13,26 12,27 7,27 7,32 "/>
<path d="M21.035,0C14.94,0,10,4.94,10,11.034c0,6.095,4.94,11.034,11.035,11.034c6.094,0,11.033-4.939,11.033-11.034
	C32.068,4.94,27.129,0,21.035,0z M21.001,14C19.343,14,18,12.656,18,11s1.343-3,3.001-3C22.658,8,24,9.344,24,11
	S22.658,14,21.001,14z"/>
</svg>
