<?xml version="1.0" encoding="utf-8"?>
<!-- Generator: Adobe Illustrator 16.0.3, SVG Export Plug-In . SVG Version: 6.00 Build 0)  -->
<!DOCTYPE svg PUBLIC "-//W3C//DTD SVG 1.1//EN" "http://www.w3.org/Graphics/SVG/1.1/DTD/svg11.dtd">
<svg version="1.1" id="Layer_1" xmlns="http://www.w3.org/2000/svg" xmlns:xlink="http://www.w3.org/1999/xlink" x="0px" y="0px"
	 width="32px" height="32px" viewBox="0 0 32 32" enable-background="new 0 0 32 32" xml:space="preserve">
<circle fill="#13204D" cx="16" cy="16" r="16"/>
<g>
	<path fill="#FFFFFF" d="M24.512,12.994C24.813,12.687,25,12.265,25,11.8c0-0.94-0.763-1.703-1.703-1.703
		c-0.852,0-1.556,0.623-1.684,1.438l-5.665,4.755l-5.55-4.664c-0.087-0.858-0.813-1.528-1.695-1.528C7.763,10.097,7,10.859,7,11.8
		c0,0.426,0.157,0.815,0.415,1.113v6.174C7.157,19.386,7,19.774,7,20.2c0,0.941,0.763,1.703,1.704,1.703s1.704-0.762,1.704-1.703
		c0-0.457-0.181-0.873-0.474-1.179v-4.45l5.037,4.236c0,0,0.282,0.385,0.934,0.385s0.933-0.385,0.933-0.385l5.186-4.326v4.588
		c-0.268,0.301-0.43,0.697-0.43,1.131c0,0.941,0.763,1.703,1.704,1.703c0.94,0,1.703-0.762,1.703-1.703
		c0-0.465-0.187-0.887-0.488-1.193V12.994z M8.704,20.778c-0.319,0-0.578-0.259-0.578-0.578c0-0.318,0.259-0.578,0.578-0.578
		c0.319,0,0.578,0.26,0.578,0.578C9.282,20.52,9.023,20.778,8.704,20.778z M8.704,12.378c-0.319,0-0.578-0.259-0.578-0.578
		c0-0.318,0.259-0.578,0.578-0.578c0.319,0,0.578,0.26,0.578,0.578C9.282,12.119,9.023,12.378,8.704,12.378z M16.695,17.19
		l-0.814,0.926h0.814v0.4H15.29v-0.4l0.814-0.926H15.29v-0.402h1.405V17.19z M23.297,20.778c-0.32,0-0.578-0.259-0.578-0.578
		c0-0.318,0.258-0.578,0.578-0.578c0.318,0,0.577,0.26,0.577,0.578C23.874,20.52,23.615,20.778,23.297,20.778z M23.297,12.378
		c-0.32,0-0.578-0.259-0.578-0.578c0-0.318,0.258-0.578,0.578-0.578c0.318,0,0.577,0.26,0.577,0.578
		C23.874,12.119,23.615,12.378,23.297,12.378z"/>
</g>
</svg>
