<?xml version="1.0" encoding="utf-8"?>
<!-- Generator: Adobe Illustrator 16.0.3, SVG Export Plug-In . SVG Version: 6.00 Build 0)  -->
<!DOCTYPE svg PUBLIC "-//W3C//DTD SVG 1.1//EN" "http://www.w3.org/Graphics/SVG/1.1/DTD/svg11.dtd">
<svg version="1.1" id="Layer_1" xmlns="http://www.w3.org/2000/svg" xmlns:xlink="http://www.w3.org/1999/xlink" x="0px" y="0px"
	 width="32px" height="32px" viewBox="240.5 240.5 32 32" enable-background="new 240.5 240.5 32 32" xml:space="preserve">
<path opacity="0.5" fill="#0F1C33" d="M271.876,268.881l-7.804-7.812c1.53-2.132,2.431-4.746,2.431-7.57c0-7.179-5.82-13-13-13
	s-13,5.821-13,13c0,7.181,5.821,13.001,13,13.001c2.824,0,5.437-0.901,7.569-2.431l7.804,7.812c0.828,0.828,2.171,0.828,3,0
	C272.703,271.053,272.703,269.709,271.876,268.881z M253.503,262.499c-4.97,0-9-4.029-9-9.001c0-4.97,4.03-9,9-9s9,4.03,9,9
	C262.503,258.47,258.474,262.499,253.503,262.499z"/>
</svg>
