<?xml version="1.0" encoding="utf-8"?>
<!-- Generator: Adobe Illustrator 16.0.3, SVG Export Plug-In . SVG Version: 6.00 Build 0)  -->
<!DOCTYPE svg PUBLIC "-//W3C//DTD SVG 1.1//EN" "http://www.w3.org/Graphics/SVG/1.1/DTD/svg11.dtd">
<svg version="1.1" id="Layer_1" xmlns="http://www.w3.org/2000/svg" xmlns:xlink="http://www.w3.org/1999/xlink" x="0px" y="0px"
	 width="32px" height="32px" viewBox="0 0 32 32" enable-background="new 0 0 32 32" xml:space="preserve">
<g>
	<polygon points="0.001,25.413 0,31.992 6.579,31.992 19.736,18.831 13.16,12.254 	"/>
	<path d="M31.252,4.029c-2.486-2.486-2.111-2.111-3.29-3.291c-1.646-1.645-3.29,0.004-3.29,0.004l-1.645,1.645l-1.646-1.645
		c0,0-1.644-1.644-3.288,0.001C16.45,2.388,6.579,12.254,6.579,12.254l1.645,1.645L19.739,2.387l1.642,1.643l-6.578,6.578l6.58,6.58
		l9.869-9.87C31.252,7.317,32.936,5.71,31.252,4.029z"/>
</g>
</svg>
