<?xml version="1.0" encoding="utf-8"?>
<!-- Generator: Adobe Illustrator 16.0.3, SVG Export Plug-In . SVG Version: 6.00 Build 0)  -->
<!DOCTYPE svg PUBLIC "-//W3C//DTD SVG 1.1//EN" "http://www.w3.org/Graphics/SVG/1.1/DTD/svg11.dtd">
<svg version="1.1" id="Layer_1" xmlns="http://www.w3.org/2000/svg" xmlns:xlink="http://www.w3.org/1999/xlink" x="0px" y="0px"
	 width="32px" height="32px" viewBox="0 0 32 32" enable-background="new 0 0 32 32" xml:space="preserve">
<g>
	<g>
		<path fill="#B7472A" d="M19,5V0L1,5v22l18,5v-5h12V5H19z M30,26H19v-3h8v-1h-8v-2h8v-1h-8v-3.379
			C19.733,16.459,20.798,17,21.999,17c2.209,0,4-1.791,4-4h-4V9C20.798,9,19.733,9.54,19,10.378V6h11V26z"/>
		<path fill="#B7472A" d="M23,8v4h4C27,9.791,25.209,8,23,8z"/>
	</g>
	<g>
		<path fill="#FFFFFF" d="M5.792,9.897c0.751-0.22,1.839-0.439,3.439-0.603c1.704-0.173,2.978,0.056,3.865,0.697
			c0.872,0.623,1.478,1.735,1.489,3.103c0.011,1.371-0.438,2.539-1.246,3.319c-1.024,0.981-2.493,1.38-4.135,1.329
			c-0.354-0.011-0.668-0.038-0.91-0.085l0.01,4.603L5.792,22V9.897z M8.289,15.418c0.226,0.056,0.503,0.073,0.892,0.071
			c1.468-0.007,2.404-0.829,2.397-2.199c-0.007-1.229-0.818-1.908-2.197-1.815c-0.547,0.038-0.911,0.118-1.101,0.187L8.289,15.418z"
			/>
	</g>
</g>
</svg>
