<?xml version="1.0" encoding="utf-8"?>
<!-- Generator: Adobe Illustrator 16.0.3, SVG Export Plug-In . SVG Version: 6.00 Build 0)  -->
<!DOCTYPE svg PUBLIC "-//W3C//DTD SVG 1.1//EN" "http://www.w3.org/Graphics/SVG/1.1/DTD/svg11.dtd">
<svg version="1.1" id="Layer_1" xmlns="http://www.w3.org/2000/svg" xmlns:xlink="http://www.w3.org/1999/xlink" x="0px" y="0px"
	 width="32px" height="32px" viewBox="8.5 6.5 32 32" enable-background="new 8.5 6.5 32 32" xml:space="preserve">
<g>
	<g>
		<path fill="#2376E5" d="M18.5,10.5h-4c-1.1,0-2,0.9-2,2v4c0,1.1,0.9,2,2,2h4c1.1,0,2-0.9,2-2v-4C20.5,11.4,19.6,10.5,18.5,10.5z
			 M30.5,18.5h6c1.1,0,2-0.9,2-2v-6c0-1.1-0.9-2-2-2h-6c-1.1,0-2,0.9-2,2v6C28.5,17.6,29.4,18.5,30.5,18.5z M18.5,26.5h-6
			c-1.1,0-2,0.9-2,2v6c0,1.1,0.9,2,2,2h6c1.1,0,2-0.9,2-2v-6C20.5,27.4,19.6,26.5,18.5,26.5z M34.5,26.5h-4c-1.1,0-2,0.9-2,2v4
			c0,1.1,0.9,2,2,2h4c1.1,0,2-0.9,2-2v-4C36.5,27.4,35.6,26.5,34.5,26.5z M36.5,22.5h-2c-2.67,0-5.184-1.04-7.07-2.93
			c-1.889-1.889-2.93-4.399-2.93-7.07v-2c0-2.2-1.799-4-4-4h-8c-2.199,0-4,1.8-4,4v8c0,2.2,1.801,4,4,4h2
			c2.672,0,5.182,1.04,7.07,2.93c1.891,1.889,2.93,4.399,2.93,7.07v2c0,2.2,1.801,4,4,4h8c2.201,0,4-1.8,4-4v-8
			C40.5,24.3,38.701,22.5,36.5,22.5z M38.5,34.5c0,0.529-0.209,1.031-0.588,1.411c-0.381,0.38-0.883,0.589-1.412,0.589h-8
			c-0.529,0-1.031-0.209-1.41-0.589c-0.381-0.38-0.59-0.882-0.59-1.411v-2c0-6.627-5.373-12-12-12h-2
			c-0.529,0-1.031-0.209-1.41-0.589c-0.381-0.38-0.59-0.882-0.59-1.411v-8c0-0.529,0.209-1.031,0.59-1.411
			C11.469,8.709,11.971,8.5,12.5,8.5h8c0.529,0,1.031,0.209,1.412,0.589C22.291,9.469,22.5,9.971,22.5,10.5v2
			c0,6.627,5.373,12,12,12h2c0.529,0,1.031,0.209,1.412,0.589c0.379,0.38,0.588,0.882,0.588,1.411V34.5z"/>
	</g>
</g>
</svg>
