<?xml version="1.0" encoding="utf-8"?>
<!-- Generator: Adobe Illustrator 16.0.3, SVG Export Plug-In . SVG Version: 6.00 Build 0)  -->
<!DOCTYPE svg PUBLIC "-//W3C//DTD SVG 1.1//EN" "http://www.w3.org/Graphics/SVG/1.1/DTD/svg11.dtd">
<svg version="1.1" id="Layer_1" xmlns="http://www.w3.org/2000/svg" xmlns:xlink="http://www.w3.org/1999/xlink" x="0px" y="0px"
	 width="32px" height="32px" viewBox="0 0 32 32" enable-background="new 0 0 32 32" xml:space="preserve">
<g>
	<path fill="#A9ADB3" d="M10,4H6C4.9,4,4,4.9,4,6v4c0,1.1,0.9,2,2,2h4c1.1,0,2-0.9,2-2V6C12,4.9,11.1,4,10,4z"/>
	<path fill="#A9ADB3" d="M22,12h6c1.1,0,2-0.9,2-2V4c0-1.1-0.9-2-2-2h-6c-1.1,0-2,0.9-2,2v6C20,11.1,20.9,12,22,12z"/>
	<path fill="#A9ADB3" d="M10,20H4c-1.1,0-2,0.9-2,2v6c0,1.1,0.9,2,2,2h6c1.1,0,2-0.9,2-2v-6C12,20.9,11.1,20,10,20z"/>
	<path fill="#A9ADB3" d="M26,20h-4c-1.1,0-2,0.9-2,2v4c0,1.1,0.9,2,2,2h4c1.1,0,2-0.9,2-2v-4C28,20.9,27.1,20,26,20z"/>
	<path fill="#A9ADB3" d="M28,16h-2c-2.671,0-5.184-1.04-7.07-2.93C17.04,11.182,16,8.671,16,6V4c0-2.2-1.8-4-4-4H4C1.8,0,0,1.8,0,4
		v8c0,2.2,1.8,4,4,4h2c2.671,0,5.182,1.04,7.07,2.93C14.96,20.818,16,23.329,16,26v2c0,2.2,1.8,4,4,4h8c2.2,0,4-1.8,4-4v-8
		C32,17.8,30.2,16,28,16z M30,28c0,0.529-0.209,1.031-0.589,1.411S28.529,30,28,30h-8c-0.529,0-1.031-0.209-1.411-0.589
		S18,28.529,18,28v-2c0-6.627-5.373-12-12-12H4c-0.529,0-1.031-0.209-1.411-0.589S2,12.529,2,12V4c0-0.529,0.209-1.031,0.589-1.411
		S3.471,2,4,2h8c0.529,0,1.031,0.209,1.411,0.589S14,3.471,14,4v2c0,6.627,5.373,12,12,12h2c0.529,0,1.031,0.209,1.411,0.589
		S30,19.471,30,20V28z"/>
</g>
</svg>
