<?xml version="1.0" encoding="utf-8"?>
<!-- Generator: Adobe Illustrator 16.0.3, SVG Export Plug-In . SVG Version: 6.00 Build 0)  -->
<!DOCTYPE svg PUBLIC "-//W3C//DTD SVG 1.1//EN" "http://www.w3.org/Graphics/SVG/1.1/DTD/svg11.dtd">
<svg version="1.1" id="Layer_1" xmlns="http://www.w3.org/2000/svg" xmlns:xlink="http://www.w3.org/1999/xlink" x="0px" y="0px"
	 width="32px" height="32px" viewBox="0 0 32 32" enable-background="new 0 0 32 32" xml:space="preserve">
<g>
	<path d="M31,8l-7-7c0,0-0.841-1-2-1h-1.643v5.004c0,1.1-0.899,2-2,2H9c-1.1,0-2-0.9-2-2V0H5C2.25,0,0,2.25,0,5v22
		c0,2.75,2.25,5,5,5h22c2.75,0,5-2.25,5-5V10C32,8.86,31,8,31,8z M25,25c0,1.1-0.9,2-2,2H9c-1.1,0-2-0.9-2-2v-7c0-1.1,0.9-2,2-2h14
		c1.102,0,2,0.9,2,2V25z"/>
	<path d="M17,6h1c0.55,0,1-0.45,1-1V3c0-0.55-0.45-1-1-1h-1c-0.55,0-1,0.45-1,1v2C16,5.55,16.45,6,17,6z"/>
	<path d="M22,18H10c-0.552,0-1,0.447-1,1s0.448,1,1,1h12c0.553,0,1-0.447,1-1S22.553,18,22,18z"/>
	<path d="M22,23H10c-0.552,0-1,0.447-1,1s0.448,1,1,1h12c0.553,0,1-0.447,1-1S22.553,23,22,23z"/>
</g>
</svg>
