<?xml version="1.0" encoding="utf-8"?>
<!-- Generator: Adobe Illustrator 16.0.3, SVG Export Plug-In . SVG Version: 6.00 Build 0)  -->
<!DOCTYPE svg PUBLIC "-//W3C//DTD SVG 1.1//EN" "http://www.w3.org/Graphics/SVG/1.1/DTD/svg11.dtd">
<svg version="1.1" id="Layer_1" xmlns="http://www.w3.org/2000/svg" xmlns:xlink="http://www.w3.org/1999/xlink" x="0px" y="0px"
	 width="32px" height="32px" viewBox="0 0 32 32" enable-background="new 0 0 32 32" xml:space="preserve">
<g>
	<path fill="#787B80" d="M28.5,16c0-1.8,1.365-3.267,3.113-3.461c-0.408-1.852-1.141-3.578-2.129-5.128
		c-1.375,1.094-3.375,1.022-4.646-0.249S23.494,3.89,24.59,2.516c-1.549-0.989-3.275-1.722-5.129-2.131
		C19.268,2.135,17.801,3.5,16,3.5c-1.8,0-3.267-1.365-3.461-3.114c-1.853,0.409-3.58,1.142-5.129,2.131
		C8.505,3.891,8.433,5.89,7.161,7.161S3.89,8.505,2.516,7.411c-0.989,1.55-1.722,3.277-2.13,5.129C2.134,12.734,3.5,14.2,3.5,16
		c0,1.801-1.365,3.268-3.114,3.461c0.409,1.854,1.142,3.58,2.131,5.13c1.375-1.094,3.373-1.021,4.644,0.249
		c1.271,1.271,1.344,3.27,0.249,4.645c1.55,0.988,3.277,1.723,5.129,2.132C12.733,29.865,14.2,28.5,16,28.5
		c1.801,0,3.268,1.365,3.461,3.114c1.852-0.409,3.578-1.142,5.129-2.13c-1.095-1.375-1.021-3.375,0.249-4.646
		s3.271-1.344,4.646-0.249c0.988-1.549,1.723-3.276,2.131-5.128C29.866,19.268,28.5,17.8,28.5,16z M16,22.5
		c-3.59,0-6.5-2.91-6.5-6.5s2.91-6.5,6.5-6.5s6.5,2.91,6.5,6.5S19.59,22.5,16,22.5z"/>
</g>
</svg>
