<?xml version="1.0" encoding="utf-8"?>
<!-- Generator: Adobe Illustrator 16.0.3, SVG Export Plug-In . SVG Version: 6.00 Build 0)  -->
<!DOCTYPE svg PUBLIC "-//W3C//DTD SVG 1.1//EN" "http://www.w3.org/Graphics/SVG/1.1/DTD/svg11.dtd">
<svg version="1.1" id="Layer_1" xmlns="http://www.w3.org/2000/svg" xmlns:xlink="http://www.w3.org/1999/xlink" x="0px" y="0px"
	 width="32px" height="32px" viewBox="0.5 0.5 32 32" enable-background="new 0.5 0.5 32 32" xml:space="preserve">
<g id="kuVHRt.tif">
	<g>
		<linearGradient id="SVGID_1_" gradientUnits="userSpaceOnUse" x1="9.3174" y1="10.9062" x2="22.5783" y2="24.1672">
			<stop  offset="0" style="stop-color:#009135"/>
			<stop  offset="1" style="stop-color:#0BD400"/>
		</linearGradient>
		<path fill="url(#SVGID_1_)" d="M26.979,7.555c-0.153,0-0.271,0-0.392,0c-6.394,0-12.786,0.002-19.179-0.004
			c-0.437,0-0.786,0.145-1.068,0.466C6.119,8.268,6.109,8.873,6.318,9.215C6.533,9.567,6.854,9.744,7.26,9.772
			c0.103,0.007,0.207,0.001,0.31,0.001c6.854,0,13.708-0.003,20.562,0.003c0.606,0.001,1.097,0.285,1.503,0.737
			c0.434,0.482,0.54,1.055,0.54,1.672c-0.001,5.988-0.002,11.975,0,17.961c0.001,0.643-0.151,1.22-0.62,1.688
			c-0.455,0.456-1.003,0.665-1.641,0.664c-1.113-0.001-2.227,0-3.339,0c-6.466,0-12.93-0.001-19.394,0.001
			c-0.698,0.001-1.306-0.191-1.792-0.723c-0.405-0.443-0.562-0.971-0.562-1.549C2.823,22.842,2.824,15.455,2.824,8.068
			c0-1.129,0.682-1.979,1.756-2.257c1.726-0.447,3.446-0.917,5.168-1.376c1.732-0.462,3.465-0.922,5.197-1.385
			c2.806-0.748,5.612-1.5,8.417-2.245c0.57-0.151,1.128-0.351,1.742-0.294c0.885,0.081,1.812,0.954,1.832,1.845
			c0.035,1.589,0.029,3.179,0.041,4.768C26.979,7.256,26.979,7.39,26.979,7.555z M25.527,23.805
			c1.228,0.014,2.269-0.979,2.287-2.253c0.02-1.26-1.031-2.315-2.291-2.299c-1.303,0.017-2.293,1.082-2.265,2.376
			C23.287,22.794,24.318,23.807,25.527,23.805z"/>
	</g>
</g>
</svg>
