<?xml version="1.0" encoding="utf-8"?>
<!-- Generator: Adobe Illustrator 16.0.3, SVG Export Plug-In . SVG Version: 6.00 Build 0)  -->
<!DOCTYPE svg PUBLIC "-//W3C//DTD SVG 1.1//EN" "http://www.w3.org/Graphics/SVG/1.1/DTD/svg11.dtd">
<svg version="1.1" id="Layer_1" xmlns="http://www.w3.org/2000/svg" xmlns:xlink="http://www.w3.org/1999/xlink" x="0px" y="0px"
	 width="32px" height="32px" viewBox="0 0 32 32" enable-background="new 0 0 32 32" xml:space="preserve">
<g>
	<path fill="#2B579A" d="M19,4V0L1,5v22l18,5v-4h12V4H19z M30,27H19v-3h8v-1h-8v-2h8v-1h-8v-2h8v-1h-8v-2h8v-1h-8v-2h8v-1h-8V9h8V8
		h-8V5h11V27z"/>
	<g>
		<path fill="#FFFFFF" d="M5.563,21.507L3.542,10.814l2.124-0.2l0.673,4.389c0.204,1.298,0.395,2.729,0.548,3.861l0.028-0.001
			c0.158-1.214,0.388-2.56,0.63-3.937l0.812-4.564l2.396-0.225l0.884,4.777c0.252,1.371,0.443,2.634,0.62,3.966l0.032,0.001
			c0.145-1.334,0.369-2.735,0.577-4.151l0.821-4.869l2.61-0.245L13.567,21.89l-2.684-0.128l-0.921-5.081
			c-0.204-1.157-0.374-2.218-0.5-3.503l-0.029,0.002c-0.172,1.281-0.332,2.363-0.564,3.517l-0.933,4.925L5.563,21.507z"/>
	</g>
</g>
</svg>
